<?xml version="1.0" encoding="UTF-8" standalone="no"?><svg xmlns="http://www.w3.org/2000/svg" xmlns:xlink="http://www.w3.org/1999/xlink" fill="#000000" height="23.8" preserveAspectRatio="xMidYMid meet" version="1" viewBox="0.0 0.0 293.7 23.8" width="293.7" zoomAndPan="magnify"><defs><clipPath id="a"><path d="M 0 0 L 293.660156 0 L 293.660156 17 L 0 17 Z M 0 0"/></clipPath><clipPath id="b"><path d="M 70 11 L 222 11 L 222 23.75 L 70 23.75 Z M 70 11"/></clipPath></defs><g><g id="change1_3"><path d="M 254.417969 6.394531 C 254.445312 6.363281 254.46875 6.324219 254.484375 6.269531 C 254.429688 6.316406 254.414062 6.355469 254.417969 6.394531" fill="#60c18e"/></g><g id="change1_4"><path d="M 231.292969 3.742188 L 231.570312 3.695312 C 231.390625 3.695312 231.324219 3.710938 231.292969 3.742188" fill="#60c18e"/></g><g id="change1_5"><path d="M 268.246094 8.117188 C 268.226562 8.128906 268.222656 8.136719 268.210938 8.144531 C 268.421875 8.171875 268.710938 8.210938 269.179688 8.269531 L 268.246094 8.117188" fill="#60c18e"/></g><g id="change1_6"><path d="M 181.722656 0.648438 L 182.035156 0.644531 C 181.894531 0.644531 181.804688 0.628906 181.722656 0.648438" fill="#60c18e"/></g><g id="change1_7"><path d="M 211.121094 2.269531 C 211.027344 2.320312 210.871094 2.332031 210.722656 2.34375 C 210.910156 2.359375 211.0625 2.355469 211.121094 2.269531" fill="#60c18e"/></g><g id="change1_8"><path d="M 275.25 11.675781 L 274.878906 11.449219 C 274.875 11.53125 275.007812 11.628906 275.25 11.675781" fill="#60c18e"/></g><g id="change1_9"><path d="M 289.332031 12.605469 C 289.324219 12.59375 289.324219 12.582031 289.300781 12.558594 C 289.277344 12.574219 289.300781 12.59375 289.332031 12.605469" fill="#60c18e"/></g><g id="change1_10"><path d="M 283.957031 11.183594 C 283.835938 11.1875 283.695312 11.203125 283.554688 11.21875 C 283.71875 11.234375 283.933594 11.257812 283.957031 11.183594" fill="#60c18e"/></g><g id="change1_11"><path d="M 283.359375 11.242188 L 283.554688 11.21875 C 283.449219 11.214844 283.359375 11.210938 283.359375 11.242188" fill="#60c18e"/></g><g id="change1_12"><path d="M 2.09375 14.289062 C 1.6875 14.34375 1.367188 14.539062 1.023438 14.710938 L 2.09375 14.289062" fill="#60c18e"/></g><g id="change1_13"><path d="M 136.738281 0.730469 L 136.824219 0.652344 C 136.742188 0.679688 136.726562 0.707031 136.738281 0.730469" fill="#60c18e"/></g><g id="change1_14"><path d="M 1.855469 16 L 1.566406 16.003906 C 1.675781 16.019531 1.769531 16.015625 1.855469 16" fill="#60c18e"/></g><g id="change1_15"><path d="M 267.777344 11.417969 C 267.351562 11.5625 266.546875 11.257812 266.53125 11.4375 C 266.964844 11.453125 267.558594 11.65625 267.777344 11.417969" fill="#60c18e"/></g><g id="change1_16"><path d="M 127.480469 8.035156 L 127.210938 8.054688 C 127.339844 8.050781 127.421875 8.042969 127.480469 8.035156" fill="#60c18e"/></g><g id="change1_17"><path d="M 1.855469 16 L 2.191406 15.992188 C 2.160156 15.960938 2.117188 15.941406 2.078125 15.917969 C 2.011719 15.953125 1.933594 15.984375 1.855469 16" fill="#60c18e"/></g><g id="change1_18"><path d="M 89.941406 2.917969 C 89.945312 2.917969 89.949219 2.917969 89.957031 2.917969 C 89.988281 2.902344 90.015625 2.894531 90.046875 2.878906 L 89.941406 2.917969" fill="#60c18e"/></g><g id="change1_19"><path d="M 87.441406 2.816406 C 87.613281 2.78125 87.78125 2.75 87.964844 2.714844 C 87.683594 2.714844 87.539062 2.757812 87.441406 2.816406" fill="#60c18e"/></g><g id="change1_20"><path d="M 1.023438 14.710938 L 0.417969 14.953125 C 0.640625 14.894531 0.835938 14.804688 1.023438 14.710938" fill="#60c18e"/></g><g id="change1_21"><path d="M 60.773438 5.445312 C 60.859375 5.425781 60.9375 5.414062 61.015625 5.398438 C 60.910156 5.40625 60.832031 5.421875 60.773438 5.445312" fill="#60c18e"/></g><g id="change1_22"><path d="M 213 2.46875 C 213.0625 2.488281 213.144531 2.503906 213.214844 2.519531 C 213.242188 2.476562 213.226562 2.445312 213 2.46875" fill="#60c18e"/></g><g id="change1_23"><path d="M 194.367188 6.695312 L 194.359375 6.695312 L 194.359375 6.699219 Z M 194.367188 6.695312" fill="#60c18e"/></g><g id="change1_24"><path d="M 195.355469 6.492188 C 195.050781 6.441406 194.605469 6.5625 194.367188 6.695312 C 194.675781 6.703125 194.96875 6.671875 195.355469 6.492188" fill="#60c18e"/></g><g id="change1_25"><path d="M 192.261719 6.535156 C 192.300781 6.546875 192.332031 6.550781 192.375 6.5625 C 192.335938 6.546875 192.300781 6.539062 192.261719 6.535156" fill="#60c18e"/></g><g id="change1_26"><path d="M 212.003906 7.671875 C 212.003906 7.664062 212.003906 7.65625 212.003906 7.652344 C 211.996094 7.65625 211.992188 7.660156 211.992188 7.667969 L 212.003906 7.671875" fill="#60c18e"/></g><g id="change1_27"><path d="M 208.089844 7.515625 C 208.023438 7.476562 207.929688 7.445312 207.824219 7.417969 C 207.890625 7.460938 207.976562 7.492188 208.089844 7.515625" fill="#60c18e"/></g><g id="change1_28"><path d="M 182.507812 6.796875 L 182.511719 6.789062 C 182.5 6.789062 182.5 6.789062 182.492188 6.792969 L 182.507812 6.796875" fill="#60c18e"/></g><g clip-path="url(#a)" id="change1_1"><path d="M 145.644531 8.144531 C 149.339844 7.960938 154.128906 7.585938 157.796875 7.65625 C 158.589844 7.265625 159.753906 7.242188 160.925781 7.152344 L 161.050781 7.660156 L 162.023438 7.488281 C 162.421875 7.640625 161.273438 7.589844 161.976562 7.78125 L 162.34375 7.460938 C 162.421875 7.640625 164.847656 7.5625 163.210938 7.941406 C 164.476562 7.929688 165.738281 7.925781 167 7.949219 C 167.835938 7.972656 167.492188 7.527344 168.414062 7.664062 C 168.601562 7.816406 168.082031 7.761719 168.15625 7.945312 C 170.933594 8.355469 171.375 6.992188 173.96875 7.253906 L 173.746094 7.320312 C 174.191406 7.191406 175.027344 7.21875 175.039062 7.144531 C 174.714844 6.625 174.570312 7.417969 173.785156 7.105469 C 173.859375 6.671875 174.773438 6.882812 174.726562 6.550781 C 175.332031 6.714844 175.691406 6.472656 176.222656 6.453125 C 177.121094 6.734375 178.417969 6.554688 179.09375 6.90625 C 179.539062 6.773438 180.039062 6.351562 180.988281 6.34375 C 181.664062 6.691406 180.824219 6.667969 181.75 6.804688 L 181.902344 6.554688 C 182.660156 6.601562 182.542969 6.671875 182.511719 6.789062 C 183.324219 6.816406 183.195312 6.441406 184.210938 6.636719 L 183.636719 6.863281 C 184.394531 6.789062 184.699219 6.84375 185.75 6.894531 C 185.722656 7.039062 185.300781 7.015625 184.992188 6.964844 C 185.554688 7.355469 185.972656 6.832031 186.28125 6.882812 C 186.195312 6.769531 185.46875 6.699219 185.832031 6.460938 C 186.347656 6.523438 186.949219 6.152344 187.3125 6.460938 L 186.738281 6.6875 C 187.828125 6.523438 187.328125 6.390625 188.570312 6.523438 C 188.503906 6.539062 188.535156 6.605469 188.507812 6.65625 C 189.304688 6.355469 190.328125 6.679688 191.492188 6.738281 L 191.269531 6.800781 C 191.742188 6.726562 192.007812 6.511719 192.261719 6.535156 C 191.601562 6.371094 191.785156 6.304688 191.730469 6.058594 C 192.597656 6.503906 193.089844 5.617188 194.519531 5.90625 C 194.492188 6.050781 194.140625 6.214844 193.75 6.050781 C 193.246094 6.460938 193.171875 6.820312 192.292969 6.996094 C 192.839844 6.910156 193.480469 6.871094 193.339844 7.046875 L 193.523438 6.65625 C 193.851562 6.65625 194.113281 6.6875 194.359375 6.695312 C 194.511719 6.449219 193.707031 6.265625 194.476562 6.121094 C 195.34375 6.019531 194.921875 6.542969 195.0625 6.367188 C 196.253906 6.246094 195.566406 5.957031 196.703125 6.121094 C 196.589844 6.152344 196.363281 6.214844 196.265625 6.171875 C 197.078125 6.355469 198.28125 6.160156 198.503906 6.648438 C 198.378906 6.75 198.351562 6.890625 198.042969 6.84375 L 198.054688 6.769531 C 197.144531 7.089844 198.808594 6.699219 198.515625 7.117188 C 198.460938 6.859375 199.609375 6.953125 200.125 7.015625 L 199.96875 6.71875 C 201.730469 5.898438 199.855469 7.292969 201.566406 7.230469 C 202.65625 7.066406 201.160156 7.140625 201.832031 6.953125 C 202.5625 7.03125 202.824219 7.308594 203.898438 7.234375 C 204.191406 7.363281 204.789062 7.546875 204.828125 7.878906 C 205.484375 7.777344 206.792969 8.117188 207.175781 7.820312 C 206.078125 7.488281 206.054688 8.105469 204.777344 7.621094 L 205.152344 7.320312 C 206.050781 7.378906 207.210938 7.273438 207.824219 7.417969 C 207.703125 7.351562 207.648438 7.265625 207.730469 7.203125 C 209.019531 7.144531 209.402344 6.84375 210.644531 7 C 210.792969 7.296875 210.066406 7.214844 209.535156 7.214844 C 210.328125 7.484375 210.375 7.273438 211.617188 7.425781 C 211.667969 7.683594 210.777344 7.371094 210.621094 7.613281 L 212.003906 7.597656 C 212 7.613281 212.003906 7.632812 212.003906 7.652344 C 212.222656 7.234375 213.054688 7.738281 213.902344 7.652344 C 215.902344 7.75 216.238281 7.191406 217.363281 6.90625 C 217.65625 7.035156 217.738281 7.148438 217.605469 7.246094 C 217.125 7.035156 217.207031 7.1875 217.027344 7.289062 C 217.707031 7.28125 218.484375 7.78125 218.097656 7.933594 C 219.175781 7.863281 217.722656 7.691406 218.386719 7.589844 L 219.851562 7.6875 C 219.691406 7.460938 219.175781 7.390625 219.945312 7.257812 C 220.59375 7.226562 220.898438 7.300781 221.734375 7.367188 C 221.605469 7.46875 221.980469 7.71875 221.351562 7.660156 C 221.75 7.769531 222.382812 7.824219 222.640625 7.628906 C 221.734375 7.367188 224.152344 7.539062 223.492188 7.15625 L 224.394531 7.414062 C 224.1875 7.394531 224.152344 7.539062 223.847656 7.476562 C 224.089844 7.824219 224.601562 7.429688 224.925781 7.421875 C 225.246094 7.507812 226.082031 7.59375 226.140625 7.722656 C 226.4375 7.652344 227.140625 7.773438 227.261719 7.949219 C 227.699219 7.910156 227.3125 7.734375 227.441406 7.636719 L 228.90625 7.761719 C 228.972656 7.953125 229.0625 8.46875 228.835938 8.523438 C 229.402344 8.390625 229.070312 7.992188 229.90625 8.066406 C 229.402344 8.390625 230.996094 8.414062 230.269531 8.789062 C 230.730469 9.082031 232.101562 9.164062 232.859375 9.121094 C 233.34375 8.867188 232.054688 8.90625 232.125 8.621094 C 234.246094 8.65625 234.433594 7.871094 235.980469 8.113281 L 235.582031 8.003906 C 236.5625 7.90625 236.453125 7.933594 237.035156 7.730469 C 236.742188 8.074219 238.066406 8.746094 239.664062 8.808594 C 239.8125 8.640625 238.800781 8.394531 239.078125 8.128906 L 240.140625 8.164062 C 240.214844 8.203125 240.09375 8.25 239.957031 8.285156 C 240.914062 8.238281 241.683594 8.902344 241.988281 8.503906 L 242.910156 9.109375 L 242.546875 8.851562 C 242.691406 8.6875 243.757812 8.722656 243.984375 8.675781 C 245.085938 8.570312 245.464844 8.757812 246.042969 9.035156 C 245.863281 8.871094 245.421875 8.496094 246.28125 8.515625 C 246.222656 9.09375 248.050781 8.878906 248 9.175781 C 248.347656 9.199219 248.941406 9.433594 249.003906 9.195312 L 248.914062 9.550781 C 249.039062 9.054688 250.292969 9.183594 251.261719 9.175781 C 250.984375 9.839844 252.324219 9.214844 252.695312 9.871094 C 252.917969 9.421875 254.417969 9.832031 254.625 9.453125 C 255.367188 9.492188 255.253906 9.917969 255.429688 10.082031 L 255.789062 9.941406 C 256.144531 10.183594 257.53125 10.339844 258.339844 10.582031 L 259.144531 10.253906 L 259.414062 10.46875 C 259.546875 10.375 260.191406 10.382812 259.808594 10.1875 L 260.222656 10.253906 C 260.300781 9.8125 260.816406 10.191406 261.667969 10.089844 C 261.851562 10.179688 261.792969 10.28125 261.605469 10.324219 C 262.019531 10.367188 261.816406 10.582031 262.03125 10.753906 C 261.746094 10.609375 263.601562 10.105469 262.503906 9.789062 C 262.445312 9.597656 263.109375 9.53125 263.511719 9.65625 L 263.71875 10.082031 L 264.25 9.710938 C 264.894531 9.714844 265.140625 10 265.652344 10.101562 C 265.121094 10.070312 264.398438 10.753906 265.765625 10.882812 C 265.042969 10.859375 264.667969 11.046875 264.289062 11.09375 C 264.566406 11.136719 264.707031 11.191406 264.25 11.316406 C 265.328125 11.300781 264.628906 11.105469 265.691406 11.164062 C 265.59375 11.519531 265.878906 11.664062 266.785156 11.882812 L 266.125 11.546875 C 266.160156 11.507812 266.210938 11.480469 266.265625 11.464844 C 266.007812 11.398438 265.941406 11.335938 265.898438 11.191406 C 266.105469 11.214844 267.167969 10.871094 267.324219 11.105469 C 266.320312 10.4375 269.222656 10.867188 268.578125 10.457031 C 268.710938 10.367188 269.449219 10.421875 269.507812 10.609375 C 268.59375 10.789062 270.128906 11.085938 269.957031 11.324219 C 270.296875 11.253906 269.292969 10.984375 269.75 10.894531 C 270.28125 10.925781 270.640625 11.1875 270.921875 11.332031 L 270.695312 11.375 L 271.492188 11.617188 C 271.644531 11.453125 270.738281 11.234375 271.496094 11.21875 C 271.683594 11.3125 272.445312 11.296875 272.40625 11.4375 C 272.023438 11.648438 272.246094 12.003906 271.601562 11.996094 C 272.132812 12.027344 273.824219 12.160156 273.179688 11.753906 L 273.808594 11.832031 C 273.429688 11.636719 272.351562 11.25 273.621094 11.332031 L 273.605469 11.402344 L 274.515625 11.222656 L 274.878906 11.449219 C 274.878906 11.355469 275.027344 11.285156 275.351562 11.324219 C 275.425781 11.441406 275.726562 11.523438 275.6875 11.664062 C 276.632812 11.761719 276.578125 11.570312 276.714844 11.480469 C 277.246094 11.519531 277.433594 11.617188 277.164062 11.800781 C 277.882812 11.933594 279.152344 12.042969 279.625 12.292969 C 280.613281 12.25 279.433594 12.195312 280.027344 12.019531 C 280.792969 12.75 283.203125 12.652344 284.792969 12.765625 C 284.429688 12.164062 285.234375 12.753906 285.585938 12.292969 C 285.222656 12.421875 287.035156 12.898438 285.628906 12.882812 L 286.480469 12.929688 C 287.019531 13.300781 285.058594 12.984375 285.878906 13.503906 C 286.828125 13.601562 287.523438 13.078125 288.613281 13.414062 C 288.191406 13.757812 289.488281 13.390625 289.15625 13.785156 C 288.90625 13.894531 288.601562 13.816406 288.28125 13.808594 L 288.46875 13.90625 C 290.53125 14.269531 289.125 13.523438 290.246094 13.390625 C 291.519531 13.492188 291.207031 13.816406 291.257812 14.007812 C 291.441406 14.105469 292.085938 14.125 292.433594 14.0625 C 291.632812 14.207031 291.039062 13.648438 291.425781 13.445312 C 291.925781 13.957031 293.296875 13.710938 293.664062 13.578125 C 291.917969 12.890625 292.417969 13.402344 290.78125 12.695312 C 290.53125 12.804688 290.519531 13.207031 289.523438 12.917969 C 290.1875 12.800781 289.507812 12.695312 289.332031 12.605469 C 289.5 12.859375 288.613281 12.617188 288.292969 12.671875 C 288.03125 12.453125 288.96875 12.21875 287.949219 12.003906 L 287.6875 12.515625 C 287.292969 12.386719 287.90625 12.144531 287.03125 12.167969 C 287.53125 11.945312 286.945312 11.714844 288.121094 11.773438 C 286.789062 11.144531 285.957031 11.757812 284.855469 11.824219 C 284.96875 11.800781 284.988281 11.730469 285.101562 11.710938 C 284.855469 11.824219 284.4375 11.761719 284.113281 11.757812 C 283.417969 11.546875 284.707031 11.582031 284.539062 11.410156 L 283.382812 11.285156 C 283.363281 11.265625 283.359375 11.253906 283.359375 11.242188 C 283.046875 11.28125 282.753906 11.292969 282.664062 11.148438 C 283.027344 11.015625 283.183594 10.855469 283.433594 10.742188 L 282.171875 10.96875 C 282.328125 10.804688 281.210938 10.539062 282.085938 10.515625 L 280.285156 10.371094 L 280.175781 9.992188 C 279.738281 10.003906 279.71875 10.074219 280.226562 10.179688 C 279.621094 10.023438 277.433594 10.480469 277.839844 9.808594 C 276.394531 9.9375 275.902344 9.738281 274.171875 9.753906 C 275.523438 9.554688 272.710938 9.175781 274.121094 9.164062 C 273.324219 8.921875 273.109375 9.296875 272.460938 9.289062 C 271.875 9.074219 272.183594 8.746094 272.851562 8.679688 L 272.066406 8.765625 L 272.089844 8.695312 L 271.402344 8.832031 C 270.71875 8.566406 271.292969 8.453125 270.566406 8.328125 L 270.375 8.632812 L 269.902344 8.394531 C 270.070312 8.558594 269.632812 8.582031 269.101562 8.550781 L 269.121094 8.480469 L 268.472656 8.472656 C 269.128906 8.34375 267.894531 8.34375 268.210938 8.144531 C 267.660156 8.074219 267.648438 8.078125 266.648438 8.03125 L 266.800781 8.269531 C 265.488281 8.328125 266.78125 7.9375 265.734375 7.808594 L 265.773438 8.070312 C 264.308594 7.488281 263.1875 8.042969 262.101562 7.65625 C 262.746094 7.664062 262.617188 7.351562 262.59375 7.425781 C 261.625 7.417969 260.066406 7.1875 259.042969 7.390625 C 258.714844 6.984375 258.636719 6.867188 257.628906 6.597656 C 256.882812 6.546875 256.773438 6.582031 256.507812 6.769531 C 255.800781 6.566406 254.429688 6.664062 254.417969 6.394531 C 254.230469 6.589844 253.773438 6.296875 253.359375 6.441406 L 253.285156 6.324219 L 253.324219 6.582031 C 252.097656 5.910156 251.136719 6.71875 249.890625 6.117188 L 250.121094 6.070312 L 249.566406 6.121094 C 249.492188 6.003906 249.71875 5.953125 249.753906 5.8125 L 247.234375 5.550781 L 247.714844 5.78125 C 247.183594 5.765625 246.804688 5.976562 246.210938 5.773438 C 247.253906 5.476562 245.375 5.683594 245.234375 5.378906 L 245.785156 5.324219 C 245.042969 5.285156 245.042969 5.285156 245.082031 5.546875 C 244.117188 5.550781 244.464844 5.007812 243.554688 5.203125 L 244.183594 5.269531 C 244.359375 5.433594 243.890625 5.601562 243.46875 5.558594 C 243.371094 5.511719 243.082031 5.375 243.40625 5.371094 C 242.644531 5.402344 241.519531 5.175781 241.179688 5.25 C 240.777344 5.136719 240.925781 4.96875 241.152344 4.917969 C 239.515625 5.003906 240.425781 4.800781 238.785156 4.894531 L 238.824219 4.753906 L 238.253906 4.886719 L 237.484375 4.53125 L 237.753906 4.734375 C 237.222656 4.726562 236.882812 4.804688 236.265625 4.679688 L 236.53125 4.484375 C 235.023438 4.503906 234.820312 4.011719 233.375 4.214844 C 233.28125 4.167969 233.507812 4.117188 233.621094 4.089844 C 232.277344 4.339844 232.652344 3.644531 231.292969 3.964844 C 231.378906 3.898438 231.238281 3.796875 231.292969 3.742188 L 230.679688 3.839844 L 230.746094 3.554688 L 230.222656 3.945312 L 229.871094 3.625 L 229.625 3.746094 C 229.015625 3.152344 228.074219 3.507812 227.214844 3.03125 L 227.34375 3.40625 C 225.0625 4.023438 222.265625 2.625 219.546875 2.835938 L 219.609375 2.550781 L 218.476562 2.835938 C 217.890625 2.578125 218.851562 2.605469 218.671875 2.449219 C 217.46875 2.550781 218.152344 2.851562 216.761719 2.867188 C 216.0625 2.640625 217.019531 2.667969 217.359375 2.582031 C 216.054688 2.660156 214.128906 2.726562 213.214844 2.519531 C 213.191406 2.558594 213.132812 2.605469 213.179688 2.625 C 212.308594 2.714844 211.171875 2.527344 210.214844 2.5 C 210.246094 2.367188 210.484375 2.359375 210.722656 2.34375 C 210.378906 2.308594 209.914062 2.195312 209.613281 2.316406 L 209.984375 2.085938 C 209.253906 1.996094 207.832031 2.15625 207.683594 1.855469 C 207.765625 1.972656 207.71875 2.1875 207.085938 2.144531 C 206.757812 1.683594 205.355469 2.246094 204.351562 1.960938 C 204.476562 1.859375 205.222656 1.875 205.011719 1.859375 C 204.507812 1.71875 204.042969 1.902344 203.589844 2.019531 L 203.734375 1.847656 C 202.941406 1.890625 202.148438 1.929688 201.355469 1.992188 C 201.019531 1.542969 199.117188 1.992188 199.292969 1.675781 C 198.445312 1.632812 199.996094 1.890625 198.921875 1.910156 C 198.644531 1.71875 197.953125 1.972656 198.007812 1.683594 L 198.125 1.65625 L 197.375 1.65625 L 197.855469 1.386719 C 197.210938 1.425781 196.730469 1.695312 196.6875 1.910156 C 196.085938 1.734375 195.214844 1.839844 194.945312 1.574219 L 195.171875 1.511719 C 193.457031 1.574219 192.359375 0.648438 190.996094 1.089844 C 190.898438 1.046875 190.910156 0.976562 191.121094 0.984375 L 190.0625 0.933594 L 190.320312 0.730469 L 188.5625 1.003906 L 188.589844 0.863281 C 187.433594 0.769531 185.621094 0.789062 184.132812 0.789062 L 184.355469 0.726562 C 182.726562 0.910156 182.789062 0.566406 181.597656 0.707031 C 181.640625 0.667969 181.679688 0.65625 181.722656 0.648438 L 180.652344 0.640625 L 180.890625 0.503906 C 180.09375 0.804688 178.632812 0.0703125 179.117188 0.339844 C 178.667969 0.46875 177.894531 0.628906 177.757812 0.804688 C 176.589844 0.804688 177.476562 0.613281 176.753906 0.484375 C 175.910156 0.460938 175.757812 0.707031 174.617188 0.566406 L 174.640625 0.417969 C 174.105469 0.441406 173.773438 0.539062 173.027344 0.550781 L 173.25 0.484375 C 172.03125 0.777344 171.738281 0.0429688 170.777344 0.664062 C 170.269531 0.539062 169.300781 0.621094 169.347656 0.332031 C 167.832031 0.503906 166.65625 0.570312 165.152344 0.675781 C 164.914062 0.203125 164.832031 0.710938 163.917969 0.445312 L 163.988281 0.699219 C 161.859375 0.746094 159.417969 0.132812 157.074219 0.25 L 157.007812 -0.00390625 L 156.539062 0.28125 C 154.011719 0.175781 150.746094 0.0976562 148.730469 0.109375 C 148.074219 0.253906 147.078125 0.546875 146.03125 0.492188 L 146.140625 0.453125 C 144.320312 0.644531 142.394531 0.800781 140.40625 0.703125 C 140.527344 0.59375 140.328125 0.523438 140.546875 0.449219 C 140.082031 0.742188 139.382812 0.492188 138.957031 0.496094 L 139.460938 0.671875 C 138.898438 0.929688 138.082031 0.71875 137.789062 0.539062 L 136.902344 0.835938 C 136.84375 0.808594 136.75 0.773438 136.738281 0.730469 L 136.582031 0.871094 L 136.101562 0.546875 C 135.878906 0.621094 134.699219 0.734375 134.339844 1.066406 C 134.25 0.957031 133.414062 0.890625 134.054688 0.8125 L 130.789062 0.796875 L 131.300781 0.902344 C 131.371094 1.15625 130.398438 1.339844 129.886719 1.234375 C 130.542969 1.015625 129.929688 0.875 129.636719 0.695312 C 129.199219 0.84375 130.03125 0.910156 129.800781 1.054688 C 129.25 1.238281 128.074219 1.355469 127.773438 1.261719 L 128.101562 1.144531 C 127.351562 1.269531 126.984375 0.84375 126.238281 0.898438 C 125.574219 1.128906 125.074219 0.960938 125.230469 1.394531 C 124.265625 1.523438 124.84375 1.113281 124.527344 1.082031 C 124.082031 1.3125 122.722656 1.234375 122.539062 1.023438 C 122.035156 1.6875 119.921875 0.902344 119.746094 1.453125 L 118.9375 1.179688 C 118.917969 1.328125 118.777344 1.65625 118.132812 1.742188 C 117.519531 1.613281 117.652344 1.355469 117.460938 1.214844 L 117.078125 1.769531 C 113.550781 1.339844 108.949219 1.914062 105.089844 1.707031 C 103.386719 1.925781 101.242188 2.308594 99.242188 2.355469 L 99.460938 2.273438 L 97.464844 2.246094 L 98.921875 2.40625 C 98.492188 2.492188 98.160156 2.617188 97.742188 2.636719 C 95.550781 2.558594 92.621094 2.425781 89.957031 2.917969 C 88.265625 3.671875 88.765625 2.464844 87.136719 3.046875 C 87.273438 2.976562 87.320312 2.886719 87.441406 2.816406 C 85.667969 3.164062 84.703125 3.347656 82.9375 3.851562 C 83.097656 3.222656 81.773438 3.957031 81.90625 3.625 L 81.777344 3.886719 C 81.367188 3.765625 80.425781 3.785156 80.546875 3.597656 L 79.78125 3.96875 L 79.691406 3.71875 C 78.640625 3.785156 76.40625 4.171875 75.8125 3.703125 C 73.242188 4.261719 69.144531 4.582031 65.882812 4.796875 C 65.445312 5.046875 64.496094 5.160156 63.753906 5.253906 L 62.933594 5.027344 C 62.1875 5.195312 61.421875 5.65625 60.699219 5.53125 C 60.703125 5.496094 60.726562 5.46875 60.773438 5.445312 C 60.015625 5.582031 59.269531 5.492188 58.578125 5.84375 C 57.738281 5.910156 56.90625 5.828125 57.132812 5.523438 C 57.101562 6.03125 55.34375 5.625 55.34375 5.625 C 55.34375 5.625 54.664062 5.664062 53.464844 5.78125 C 52.261719 5.898438 50.535156 6.066406 48.425781 6.269531 C 46.320312 6.484375 43.835938 6.742188 41.121094 7.023438 C 38.40625 7.308594 35.464844 7.640625 32.453125 8.078125 C 29.4375 8.496094 26.34375 8.945312 23.320312 9.414062 C 20.296875 9.882812 17.34375 10.371094 14.617188 10.949219 C 9.167969 12.058594 4.59375 13.207031 2.09375 14.289062 C 1.78125 14.585938 0.835938 14.894531 1.253906 15.132812 C 0.519531 15.339844 0.105469 14.957031 0 15.226562 C 1.046875 15.234375 -0.210938 15.914062 0.835938 16.066406 L 0.203125 16.226562 C 0.101562 16.417969 1.042969 15.890625 0.9375 16.234375 L 1.042969 15.746094 C 1.570312 15.734375 1.871094 15.789062 2.078125 15.917969 C 2.535156 15.660156 2.746094 14.988281 3.953125 15.082031 L 3.636719 15.160156 C 4.578125 14.996094 4.261719 15.367188 4.472656 15.414062 L 4.261719 15.441406 L 5.097656 15.550781 C 4.46875 15.488281 3.53125 16.015625 4.046875 15.910156 C 5.195312 15.863281 3.738281 15.84375 4.574219 15.65625 C 5.097656 15.550781 4.988281 15.820312 4.988281 15.964844 L 5.925781 15.804688 C 5.929688 16.023438 5.300781 15.886719 5.71875 16.050781 L 6.871094 15.640625 C 7.175781 16.148438 8.121094 15.179688 8.746094 15.609375 C 7.910156 15.867188 8.847656 15.777344 8.742188 15.976562 L 10.828125 15.621094 C 11.039062 15.667969 10.304688 15.875 10.617188 15.796875 C 11.035156 15.886719 11.242188 15.566406 11.457031 15.539062 C 11.660156 15.65625 13.015625 15.289062 13.015625 15.660156 C 14.46875 15.679688 13.542969 15.109375 14.894531 15.113281 C 15.101562 15.304688 13.851562 15.324219 14.472656 15.460938 L 15.832031 15.167969 C 15.722656 15.292969 15.617188 15.5625 15.097656 15.597656 C 18.84375 15.292969 21.015625 16.203125 24.363281 15.445312 C 24.878906 15.640625 24.042969 15.667969 23.726562 15.886719 C 26.136719 15.207031 27.261719 15.988281 29.347656 15.675781 L 29.355469 15.453125 C 32.363281 15.742188 35.808594 14.816406 39.148438 14.722656 L 38.734375 14.617188 C 39.164062 14.359375 39.894531 14.25 40.425781 14.09375 C 40.519531 14.191406 40.089844 14.597656 41.035156 14.394531 C 40.828125 14.34375 40.414062 14.308594 40.519531 14.191406 C 43.425781 14.417969 49.390625 13.585938 54.078125 13.3125 C 60.367188 12.476562 67.257812 12.261719 73.441406 11.511719 C 72.496094 11.621094 72.851562 11.046875 73.574219 11.101562 C 75.605469 11.847656 76.945312 10.679688 78.992188 11.136719 C 82.585938 10.554688 85.871094 11.085938 89.183594 10.121094 L 89.265625 10.371094 C 89.777344 10.449219 89.902344 10.261719 90.425781 10.191406 L 90.417969 10.265625 C 91.671875 10.253906 93.164062 9.902344 93.886719 9.980469 L 93.914062 9.691406 C 94.65625 9.621094 94.316406 9.890625 95.0625 9.679688 L 95.050781 9.824219 L 95.917969 9.496094 C 95.867188 10.007812 98.015625 9.410156 98.621094 9.601562 C 99.574219 9.453125 101.382812 9.121094 102.84375 9.132812 C 103.132812 9.378906 104.914062 9.265625 106.058594 9.324219 C 108.269531 9.113281 111.429688 8.847656 114.257812 8.835938 L 114.191406 8.511719 L 114.929688 8.457031 C 114.921875 8.53125 115.019531 8.5625 114.910156 8.601562 C 115.5 8.949219 116.605469 8.414062 117.210938 8.621094 C 116.824219 8.339844 116.691406 8.59375 116.269531 8.605469 C 115.660156 8.476562 116.222656 8.136719 117.046875 8.261719 L 117.03125 8.335938 L 117.582031 8.140625 C 117.65625 8.390625 118.167969 8.488281 118.242188 8.738281 C 120.664062 8.574219 122.300781 8.0625 124.808594 8.078125 C 124.558594 8.371094 126.605469 7.925781 126.117188 8.441406 C 127.613281 8.191406 125.855469 8.050781 126.53125 7.671875 C 126.949219 7.664062 127.386719 7.507812 127.46875 7.6875 C 127.273438 7.816406 127.820312 7.972656 127.480469 8.035156 L 128.484375 7.953125 C 128.582031 7.984375 128.363281 8.066406 128.253906 8.101562 C 130.289062 7.75 131.890625 8.332031 133.71875 7.992188 C 133.851562 7.8125 132.988281 7.960938 133.117188 7.777344 C 134.953125 7.367188 134.757812 8.058594 136.476562 7.761719 L 136.125 8.015625 C 136.675781 7.832031 136.914062 7.613281 137.835938 7.789062 C 138 8.078125 137.0625 8.046875 136.625 8.195312 C 137.253906 8.191406 138.84375 8.074219 138.351562 7.824219 C 139.101562 7.707031 139.382812 7.960938 139.789062 8.03125 C 139.800781 7.957031 139.082031 7.851562 139.519531 7.707031 C 140.550781 7.84375 142.132812 7.800781 143.386719 7.792969 C 143.375 7.867188 143.464844 7.972656 143.355469 8.011719 C 144.355469 7.605469 144.261719 8.261719 145.644531 8.144531" fill="#60c18e"/></g><g id="change1_29"><path d="M 212.507812 7.738281 L 212.003906 7.671875 C 212 7.734375 211.972656 7.808594 211.734375 7.867188 L 212.507812 7.738281" fill="#60c18e"/></g><g id="change1_30"><path d="M 188.507812 6.65625 C 188.441406 6.675781 188.378906 6.699219 188.324219 6.730469 C 188.445312 6.71875 188.488281 6.691406 188.507812 6.65625" fill="#60c18e"/></g><g id="change1_31"><path d="M 182.660156 7.015625 C 183.078125 6.957031 182.710938 6.875 182.507812 6.796875 C 182.496094 6.855469 182.503906 6.925781 182.660156 7.015625" fill="#60c18e"/></g><g id="change1_32"><path d="M 226.140625 7.722656 C 226.050781 7.746094 225.996094 7.78125 226.007812 7.84375 C 226.128906 7.796875 226.15625 7.761719 226.140625 7.722656" fill="#60c18e"/></g><g id="change1_33"><path d="M 263.632812 10.988281 C 263.585938 10.96875 263.546875 10.953125 263.488281 10.929688 C 263.515625 10.953125 263.566406 10.972656 263.632812 10.988281" fill="#60c18e"/></g><g id="change1_34"><path d="M 261.605469 10.324219 C 261.503906 10.308594 261.371094 10.304688 261.175781 10.320312 C 261.359375 10.355469 261.496094 10.34375 261.605469 10.324219" fill="#60c18e"/></g><g id="change1_35"><path d="M 217.027344 7.289062 C 216.886719 7.292969 216.75 7.308594 216.628906 7.363281 C 216.84375 7.367188 216.953125 7.332031 217.027344 7.289062" fill="#60c18e"/></g><g id="change1_36"><path d="M 260.742188 10.339844 L 260.222656 10.253906 C 260.214844 10.273438 260.207031 10.285156 260.207031 10.308594 L 260.742188 10.339844" fill="#60c18e"/></g><g id="change1_37"><path d="M 264.289062 11.09375 C 264.085938 11.0625 263.808594 11.035156 263.632812 10.988281 C 263.886719 11.09375 264.089844 11.117188 264.289062 11.09375" fill="#60c18e"/></g><g id="change1_38"><path d="M 239.957031 8.285156 C 239.9375 8.285156 239.917969 8.285156 239.898438 8.285156 C 239.480469 8.378906 239.742188 8.347656 239.957031 8.285156" fill="#60c18e"/></g><g id="change1_39"><path d="M 258.410156 10.601562 C 258.386719 10.59375 258.363281 10.589844 258.339844 10.582031 L 258.179688 10.648438 L 258.410156 10.601562" fill="#60c18e"/></g><g id="change1_40"><path d="M 266.53125 11.4375 C 266.433594 11.433594 266.34375 11.4375 266.265625 11.464844 C 266.347656 11.480469 266.441406 11.503906 266.558594 11.527344 C 266.535156 11.488281 266.53125 11.460938 266.53125 11.4375" fill="#60c18e"/></g><g id="change1_41"><path d="M 247.773438 9.398438 C 247.929688 9.300781 247.992188 9.230469 248 9.175781 C 247.828125 9.167969 247.710938 9.207031 247.773438 9.398438" fill="#60c18e"/></g><g id="change1_42"><path d="M 201.339844 15.011719 C 201.355469 14.980469 201.367188 14.941406 201.375 14.886719 C 201.347656 14.9375 201.339844 14.980469 201.339844 15.011719" fill="#60c18e"/></g><g id="change1_43"><path d="M 189.390625 13.65625 L 189.535156 13.597656 C 189.441406 13.601562 189.40625 13.625 189.390625 13.65625" fill="#60c18e"/></g><g id="change1_44"><path d="M 208.488281 15.796875 C 208.480469 15.808594 208.480469 15.816406 208.472656 15.828125 C 208.582031 15.839844 208.730469 15.855469 208.972656 15.882812 L 208.488281 15.796875" fill="#60c18e"/></g><g id="change1_45"><path d="M 163.78125 12.316406 L 163.941406 12.3125 C 163.871094 12.3125 163.824219 12.296875 163.78125 12.316406" fill="#60c18e"/></g><g id="change1_46"><path d="M 178.96875 13.066406 C 178.917969 13.117188 178.839844 13.136719 178.761719 13.152344 C 178.859375 13.164062 178.9375 13.15625 178.96875 13.066406" fill="#60c18e"/></g><g id="change1_47"><path d="M 212.078125 18.851562 L 211.890625 18.648438 C 211.886719 18.730469 211.953125 18.820312 212.078125 18.851562" fill="#60c18e"/></g><g id="change1_48"><path d="M 219.371094 18.644531 C 219.367188 18.628906 219.367188 18.617188 219.355469 18.601562 C 219.34375 18.617188 219.355469 18.628906 219.371094 18.644531" fill="#60c18e"/></g><g id="change1_49"><path d="M 216.601562 17.660156 C 216.539062 17.675781 216.464844 17.699219 216.394531 17.730469 C 216.480469 17.730469 216.589844 17.738281 216.601562 17.660156" fill="#60c18e"/></g><g id="change1_50"><path d="M 216.292969 17.769531 L 216.394531 17.730469 C 216.339844 17.730469 216.292969 17.734375 216.292969 17.769531" fill="#60c18e"/></g><g id="change1_51"><path d="M 71.113281 20.324219 C 70.902344 20.34375 70.746094 20.511719 70.578125 20.65625 L 71.113281 20.324219" fill="#60c18e"/></g><g id="change1_52"><path d="M 140.5625 12.738281 L 140.605469 12.660156 C 140.5625 12.6875 140.558594 12.714844 140.5625 12.738281" fill="#60c18e"/></g><g id="change1_53"><path d="M 71.097656 22 L 70.945312 21.980469 C 71.003906 22.003906 71.054688 22.007812 71.097656 22" fill="#60c18e"/></g><g id="change1_54"><path d="M 208.214844 19.117188 C 207.992188 19.292969 207.578125 19.042969 207.570312 19.222656 C 207.792969 19.207031 208.097656 19.367188 208.214844 19.117188" fill="#60c18e"/></g><g id="change1_55"><path d="M 135.996094 19.980469 L 135.855469 20 C 135.921875 19.996094 135.964844 19.992188 135.996094 19.980469" fill="#60c18e"/></g><g id="change1_56"><path d="M 71.097656 22 L 71.273438 22.019531 C 71.253906 21.988281 71.230469 21.960938 71.210938 21.933594 C 71.175781 21.964844 71.140625 21.988281 71.097656 22" fill="#60c18e"/></g><g id="change1_57"><path d="M 116.414062 14.070312 L 116.421875 14.070312 C 116.4375 14.054688 116.449219 14.046875 116.46875 14.03125 L 116.414062 14.070312" fill="#60c18e"/></g><g id="change1_58"><path d="M 115.113281 13.875 C 115.199219 13.847656 115.285156 13.820312 115.378906 13.792969 C 115.234375 13.785156 115.160156 13.824219 115.113281 13.875" fill="#60c18e"/></g><g id="change1_59"><path d="M 70.578125 20.65625 L 70.273438 20.851562 C 70.386719 20.8125 70.484375 20.738281 70.578125 20.65625" fill="#60c18e"/></g><g id="change1_60"><path d="M 101.359375 15.394531 C 101.402344 15.382812 101.441406 15.371094 101.480469 15.355469 C 101.425781 15.359375 101.386719 15.371094 101.359375 15.394531" fill="#60c18e"/></g><g id="change1_61"><path d="M 179.941406 13.195312 C 179.96875 13.210938 180.015625 13.222656 180.050781 13.234375 C 180.0625 13.195312 180.058594 13.160156 179.941406 13.195312" fill="#60c18e"/></g><g id="change1_62"><path d="M 170.878906 17.8125 C 170.71875 17.769531 170.492188 17.902344 170.371094 18.042969 C 170.53125 18.042969 170.679688 18.003906 170.878906 17.8125" fill="#60c18e"/></g><g id="change1_63"><path d="M 169.285156 17.941406 C 169.304688 17.949219 169.320312 17.953125 169.34375 17.964844 C 169.324219 17.949219 169.304688 17.941406 169.285156 17.941406" fill="#60c18e"/></g><g id="change1_64"><path d="M 179.453125 18.429688 L 179.453125 18.410156 L 179.449219 18.425781 Z M 179.453125 18.429688" fill="#60c18e"/></g><g id="change1_65"><path d="M 177.4375 18.421875 C 177.402344 18.386719 177.355469 18.355469 177.300781 18.335938 C 177.335938 18.375 177.378906 18.40625 177.4375 18.421875" fill="#60c18e"/></g><g id="change1_66"><path d="M 164.269531 18.457031 L 164.273438 18.449219 L 164.261719 18.449219 Z M 164.269531 18.457031" fill="#60c18e"/></g><g clip-path="url(#b)" id="change1_2"><path d="M 145.34375 20.1875 C 147.238281 20.011719 149.691406 19.585938 151.582031 19.644531 C 151.980469 19.25 152.582031 19.21875 153.179688 19.121094 L 153.253906 19.628906 L 153.75 19.453125 C 153.957031 19.601562 153.367188 19.558594 153.734375 19.742188 L 153.914062 19.417969 C 153.957031 19.601562 155.203125 19.507812 154.371094 19.894531 L 156.316406 19.863281 C 156.75 19.875 156.5625 19.433594 157.039062 19.554688 C 157.140625 19.703125 156.871094 19.660156 156.914062 19.84375 C 158.347656 20.207031 158.550781 18.835938 159.886719 19.054688 L 159.773438 19.125 C 160 18.984375 160.433594 19 160.4375 18.925781 C 160.261719 18.410156 160.199219 19.207031 159.789062 18.90625 C 159.820312 18.472656 160.296875 18.667969 160.265625 18.339844 C 160.578125 18.492188 160.761719 18.242188 161.035156 18.214844 C 161.5 18.480469 162.164062 18.28125 162.515625 18.617188 C 162.742188 18.480469 162.996094 18.050781 163.484375 18.027344 C 163.835938 18.363281 163.402344 18.355469 163.882812 18.476562 L 163.957031 18.222656 C 164.347656 18.257812 164.289062 18.328125 164.273438 18.449219 C 164.691406 18.457031 164.621094 18.09375 165.144531 18.257812 L 164.851562 18.5 C 165.242188 18.40625 165.398438 18.449219 165.941406 18.476562 C 165.929688 18.621094 165.710938 18.609375 165.550781 18.566406 C 165.847656 18.941406 166.054688 18.40625 166.214844 18.449219 C 166.167969 18.339844 165.792969 18.289062 165.976562 18.039062 C 166.242188 18.085938 166.546875 17.703125 166.738281 18 L 166.445312 18.242188 C 167.003906 18.046875 166.746094 17.925781 167.386719 18.027344 C 167.351562 18.046875 167.371094 18.109375 167.355469 18.164062 C 167.761719 17.84375 168.292969 18.136719 168.894531 18.164062 L 168.777344 18.230469 C 169.019531 18.144531 169.15625 17.921875 169.285156 17.941406 C 168.945312 17.792969 169.039062 17.71875 169.007812 17.480469 C 169.457031 17.894531 169.703125 17 170.441406 17.25 C 170.425781 17.394531 170.25 17.566406 170.046875 17.414062 C 169.789062 17.839844 169.757812 18.199219 169.308594 18.398438 C 169.585938 18.300781 169.917969 18.242188 169.847656 18.421875 L 169.9375 18.023438 C 170.105469 18.015625 170.238281 18.039062 170.367188 18.042969 C 170.441406 17.792969 170.027344 17.628906 170.421875 17.46875 C 170.867188 17.339844 170.65625 17.875 170.726562 17.695312 C 171.335938 17.542969 170.980469 17.269531 171.566406 17.40625 C 171.507812 17.4375 171.394531 17.507812 171.34375 17.46875 C 171.761719 17.628906 172.378906 17.402344 172.5 17.878906 C 172.433594 17.988281 172.421875 18.128906 172.261719 18.085938 L 172.269531 18.015625 C 171.804688 18.359375 172.65625 17.921875 172.507812 18.351562 C 172.476562 18.09375 173.070312 18.15625 173.335938 18.207031 L 173.253906 17.914062 C 174.152344 17.042969 173.199219 18.488281 174.078125 18.382812 C 174.636719 18.1875 173.871094 18.300781 174.214844 18.09375 C 174.589844 18.148438 174.726562 18.417969 175.277344 18.300781 C 175.429688 18.417969 175.742188 18.582031 175.761719 18.90625 C 176.097656 18.78125 176.777344 19.074219 176.972656 18.757812 C 176.402344 18.472656 176.394531 19.089844 175.734375 18.652344 L 175.925781 18.335938 C 176.390625 18.363281 176.984375 18.214844 177.300781 18.335938 C 177.238281 18.273438 177.210938 18.1875 177.253906 18.121094 C 177.914062 18.015625 178.109375 17.699219 178.75 17.808594 C 178.828125 18.101562 178.453125 18.042969 178.179688 18.0625 C 178.589844 18.304688 178.613281 18.089844 179.253906 18.199219 C 179.28125 18.457031 178.820312 18.175781 178.742188 18.425781 L 179.453125 18.355469 C 179.453125 18.371094 179.453125 18.390625 179.453125 18.410156 C 179.566406 17.984375 179.996094 18.457031 180.433594 18.335938 C 181.460938 18.359375 181.632812 17.789062 182.210938 17.457031 C 182.363281 17.578125 182.402344 17.6875 182.335938 17.792969 C 182.089844 17.597656 182.128906 17.75 182.039062 17.859375 C 182.386719 17.820312 182.789062 18.292969 182.589844 18.460938 C 183.148438 18.347656 182.398438 18.230469 182.738281 18.105469 L 183.496094 18.148438 C 183.410156 17.925781 183.144531 17.875 183.542969 17.714844 C 183.875 17.660156 184.03125 17.710938 184.464844 17.742188 C 184.398438 17.847656 184.589844 18.078125 184.265625 18.054688 C 184.472656 18.144531 184.796875 18.164062 184.929688 17.957031 C 184.464844 17.742188 185.710938 17.792969 185.367188 17.445312 L 185.835938 17.65625 C 185.726562 17.648438 185.710938 17.792969 185.554688 17.746094 C 185.675781 18.082031 185.941406 17.667969 186.109375 17.640625 C 186.273438 17.710938 186.703125 17.753906 186.734375 17.882812 C 186.886719 17.796875 187.25 17.882812 187.3125 18.054688 C 187.539062 17.996094 187.339844 17.835938 187.40625 17.730469 L 188.160156 17.785156 C 188.195312 17.972656 188.242188 18.484375 188.125 18.546875 C 188.417969 18.386719 188.246094 18.011719 188.675781 18.042969 C 188.417969 18.386719 189.238281 18.335938 188.863281 18.746094 C 189.101562 19.015625 189.808594 19.03125 190.199219 18.949219 C 190.449219 18.675781 189.785156 18.773438 189.820312 18.488281 C 190.914062 18.421875 191.011719 17.625 191.808594 17.792969 L 191.601562 17.707031 C 192.109375 17.558594 192.050781 17.59375 192.351562 17.359375 C 192.199219 17.714844 192.882812 18.332031 193.707031 18.300781 C 193.785156 18.125 193.261719 17.933594 193.40625 17.65625 L 193.953125 17.628906 C 193.992188 17.660156 193.929688 17.71875 193.859375 17.757812 C 194.351562 17.65625 194.75 18.269531 194.90625 17.855469 L 195.378906 18.40625 L 195.195312 18.171875 C 195.269531 18 195.820312 17.972656 195.9375 17.90625 C 196.507812 17.738281 196.703125 17.902344 196.996094 18.144531 C 196.90625 17.992188 196.679688 17.644531 197.125 17.613281 C 197.089844 18.191406 198.035156 17.871094 198.007812 18.171875 C 198.1875 18.171875 198.492188 18.371094 198.527344 18.128906 L 198.480469 18.488281 C 198.546875 17.988281 199.191406 18.042969 199.691406 17.976562 C 199.546875 18.65625 200.242188 17.949219 200.429688 18.585938 C 200.546875 18.125 201.320312 18.445312 201.429688 18.050781 C 201.8125 18.050781 201.75 18.480469 201.839844 18.632812 L 202.027344 18.46875 C 202.207031 18.695312 202.921875 18.765625 203.339844 18.945312 L 203.761719 18.5625 L 203.894531 18.757812 C 203.964844 18.65625 204.296875 18.613281 204.101562 18.449219 L 204.316406 18.488281 C 204.359375 18.039062 204.625 18.382812 205.066406 18.21875 C 205.160156 18.296875 205.128906 18.402344 205.03125 18.457031 C 205.246094 18.476562 205.140625 18.699219 205.246094 18.855469 C 205.101562 18.730469 206.066406 18.101562 205.5 17.863281 C 205.472656 17.675781 205.816406 17.566406 206.023438 17.660156 L 206.125 18.070312 L 206.40625 17.660156 C 206.738281 17.625 206.863281 17.890625 207.128906 17.953125 C 206.855469 17.960938 206.472656 18.6875 207.179688 18.722656 C 206.804688 18.753906 206.609375 18.964844 206.410156 19.039062 C 206.558594 19.0625 206.628906 19.105469 206.390625 19.261719 C 206.949219 19.171875 206.589844 19.027344 207.136719 19.011719 C 207.085938 19.367188 207.230469 19.492188 207.695312 19.648438 L 207.359375 19.363281 C 207.378906 19.320312 207.402344 19.289062 207.433594 19.269531 C 207.300781 19.21875 207.265625 19.164062 207.246094 19.019531 C 207.351562 19.03125 207.90625 18.613281 207.980469 18.839844 C 207.46875 18.242188 208.96875 18.464844 208.636719 18.105469 C 208.707031 18.003906 209.089844 18.007812 209.117188 18.191406 C 208.644531 18.433594 209.433594 18.625 209.34375 18.871094 C 209.519531 18.777344 209.003906 18.578125 209.242188 18.457031 C 209.515625 18.449219 209.699219 18.6875 209.84375 18.808594 L 209.726562 18.867188 L 210.132812 19.058594 C 210.214844 18.882812 209.75 18.726562 210.140625 18.65625 C 210.238281 18.738281 210.632812 18.671875 210.609375 18.8125 C 210.410156 19.050781 210.519531 19.386719 210.1875 19.425781 C 210.460938 19.417969 211.335938 19.433594 211.003906 19.074219 L 211.332031 19.105469 C 211.136719 18.941406 210.582031 18.628906 211.242188 18.621094 L 211.230469 18.695312 L 211.703125 18.449219 L 211.890625 18.648438 C 211.890625 18.558594 211.96875 18.476562 212.136719 18.496094 C 212.171875 18.605469 212.328125 18.664062 212.304688 18.804688 C 212.796875 18.824219 212.769531 18.640625 212.839844 18.539062 C 213.117188 18.535156 213.210938 18.617188 213.070312 18.820312 C 213.441406 18.898438 214.097656 18.902344 214.339844 19.113281 C 214.851562 18.988281 214.242188 19.03125 214.550781 18.808594 C 214.9375 19.472656 216.191406 19.179688 217.015625 19.167969 C 216.835938 18.601562 217.242188 19.121094 217.429688 18.632812 C 217.242188 18.792969 218.175781 19.117188 217.445312 19.21875 L 217.886719 19.195312 C 218.160156 19.519531 217.148438 19.363281 217.566406 19.8125 C 218.054688 19.835938 218.425781 19.257812 218.984375 19.503906 C 218.761719 19.878906 219.441406 19.410156 219.261719 19.828125 C 219.128906 19.957031 218.972656 19.902344 218.808594 19.921875 L 218.902344 20.007812 C 219.964844 20.203125 219.25 19.570312 219.835938 19.347656 C 220.492188 19.347656 220.324219 19.695312 220.347656 19.882812 C 220.441406 19.964844 220.777344 19.929688 220.957031 19.84375 C 220.539062 20.046875 220.242188 19.539062 220.445312 19.308594 C 220.695312 19.773438 221.410156 19.417969 221.605469 19.261719 C 220.710938 18.71875 220.960938 19.1875 220.125 18.613281 C 219.992188 18.742188 219.980469 19.144531 219.464844 18.9375 C 219.8125 18.769531 219.460938 18.714844 219.371094 18.644531 C 219.457031 18.882812 219 18.710938 218.832031 18.792969 C 218.699219 18.59375 219.191406 18.289062 218.664062 18.152344 L 218.519531 18.6875 C 218.316406 18.585938 218.640625 18.296875 218.183594 18.390625 C 218.445312 18.128906 218.148438 17.949219 218.757812 17.910156 C 218.074219 17.394531 217.632812 18.070312 217.058594 18.222656 C 217.121094 18.195312 217.132812 18.125 217.191406 18.09375 C 217.058594 18.222656 216.84375 18.199219 216.675781 18.21875 C 216.316406 18.066406 216.988281 17.996094 216.902344 17.839844 L 216.304688 17.808594 C 216.292969 17.789062 216.292969 17.78125 216.292969 17.769531 C 216.128906 17.832031 215.976562 17.867188 215.933594 17.730469 C 216.121094 17.570312 216.207031 17.394531 216.335938 17.265625 L 215.679688 17.589844 C 215.761719 17.417969 215.1875 17.242188 215.640625 17.148438 L 214.707031 17.148438 L 214.65625 16.78125 C 214.429688 16.828125 214.417969 16.898438 214.679688 16.960938 C 214.367188 16.855469 213.226562 17.488281 213.445312 16.785156 C 212.695312 17.027344 212.441406 16.882812 211.542969 17.011719 C 212.246094 16.71875 210.792969 16.539062 211.523438 16.429688 C 211.113281 16.242188 211 16.632812 210.664062 16.667969 C 210.363281 16.496094 210.523438 16.148438 210.871094 16.035156 L 210.464844 16.175781 L 210.476562 16.105469 L 210.117188 16.289062 C 209.765625 16.070312 210.066406 15.917969 209.691406 15.84375 L 209.589844 16.160156 L 209.347656 15.957031 C 209.433594 16.109375 209.207031 16.160156 208.929688 16.167969 L 208.941406 16.097656 L 208.605469 16.136719 C 208.945312 15.960938 208.304688 16.046875 208.472656 15.828125 C 208.1875 15.792969 208.179688 15.796875 207.664062 15.824219 L 207.742188 16.050781 C 207.058594 16.199219 207.734375 15.71875 207.191406 15.667969 L 207.210938 15.921875 C 206.457031 15.445312 205.871094 16.078125 205.3125 15.765625 C 205.644531 15.730469 205.578125 15.429688 205.570312 15.5 C 205.066406 15.5625 204.257812 15.441406 203.726562 15.71875 C 203.5625 15.335938 203.523438 15.222656 203.003906 15.023438 C 202.617188 15.023438 202.558594 15.058594 202.421875 15.265625 C 202.054688 15.105469 201.34375 15.28125 201.339844 15.011719 C 201.242188 15.222656 201.007812 14.957031 200.792969 15.125 L 200.757812 15.011719 L 200.773438 15.269531 C 200.144531 14.667969 199.644531 15.535156 199 15.007812 L 199.121094 14.945312 L 198.832031 15.03125 C 198.792969 14.917969 198.910156 14.855469 198.933594 14.710938 L 197.628906 14.597656 L 197.878906 14.800781 C 197.601562 14.8125 197.40625 15.050781 197.097656 14.878906 C 197.636719 14.527344 196.664062 14.84375 196.59375 14.546875 L 196.878906 14.460938 C 196.496094 14.464844 196.496094 14.464844 196.515625 14.722656 C 196.015625 14.789062 196.199219 14.21875 195.726562 14.472656 L 196.054688 14.5 C 196.140625 14.652344 195.898438 14.851562 195.679688 14.832031 C 195.632812 14.789062 195.484375 14.667969 195.648438 14.644531 C 195.253906 14.722656 194.675781 14.5625 194.496094 14.65625 C 194.289062 14.566406 194.367188 14.390625 194.484375 14.328125 C 193.640625 14.511719 194.109375 14.261719 193.261719 14.445312 L 193.28125 14.300781 L 192.988281 14.460938 L 192.589844 14.144531 L 192.730469 14.332031 C 192.453125 14.351562 192.277344 14.445312 191.960938 14.351562 L 192.097656 14.144531 C 191.316406 14.234375 191.214844 13.753906 190.464844 14.027344 C 190.417969 13.988281 190.535156 13.921875 190.59375 13.890625 C 189.898438 14.203125 190.09375 13.492188 189.390625 13.878906 C 189.433594 13.808594 189.363281 13.714844 189.390625 13.65625 L 189.074219 13.78125 L 189.109375 13.496094 L 188.839844 13.914062 L 188.65625 13.609375 L 188.527344 13.742188 C 188.214844 13.175781 187.726562 13.578125 187.285156 13.148438 L 187.351562 13.515625 C 186.171875 14.234375 184.722656 12.992188 183.320312 13.308594 L 183.351562 13.023438 L 182.769531 13.351562 C 182.464844 13.117188 182.960938 13.109375 182.867188 12.957031 C 182.246094 13.105469 182.601562 13.378906 181.882812 13.449219 C 181.519531 13.246094 182.015625 13.238281 182.191406 13.140625 C 181.515625 13.269531 180.523438 13.40625 180.050781 13.234375 C 180.039062 13.273438 180.007812 13.324219 180.03125 13.34375 C 179.582031 13.464844 178.996094 13.320312 178.503906 13.332031 C 178.515625 13.199219 178.640625 13.179688 178.761719 13.152344 C 178.585938 13.132812 178.34375 13.035156 178.191406 13.167969 L 178.382812 12.921875 C 178.003906 12.863281 177.269531 13.078125 177.191406 12.78125 C 177.234375 12.894531 177.210938 13.113281 176.886719 13.09375 C 176.710938 12.648438 175.992188 13.261719 175.472656 13.011719 C 175.535156 12.910156 175.921875 12.894531 175.8125 12.886719 C 175.550781 12.765625 175.3125 12.96875 175.078125 13.097656 L 175.152344 12.921875 L 173.925781 13.152344 C 173.75 12.707031 172.773438 13.210938 172.859375 12.890625 C 172.421875 12.871094 173.222656 13.085938 172.671875 13.132812 C 172.523438 12.949219 172.171875 13.222656 172.195312 12.933594 L 172.253906 12.898438 L 171.871094 12.917969 L 172.113281 12.640625 C 171.78125 12.699219 171.535156 12.980469 171.519531 13.195312 C 171.203125 13.035156 170.757812 13.164062 170.613281 12.90625 L 170.730469 12.835938 C 169.847656 12.945312 169.269531 12.050781 168.570312 12.53125 C 168.519531 12.488281 168.527344 12.417969 168.636719 12.421875 L 168.089844 12.402344 L 168.21875 12.1875 L 167.3125 12.511719 L 167.328125 12.367188 C 166.730469 12.304688 165.792969 12.378906 165.027344 12.417969 L 165.140625 12.347656 C 164.300781 12.574219 164.332031 12.214844 163.71875 12.378906 C 163.738281 12.34375 163.757812 12.328125 163.78125 12.316406 L 163.230469 12.328125 L 163.351562 12.1875 C 162.941406 12.503906 162.179688 11.792969 162.433594 12.054688 C 162.203125 12.195312 161.804688 12.363281 161.738281 12.542969 C 161.136719 12.5625 161.589844 12.355469 161.214844 12.238281 C 160.777344 12.226562 160.703125 12.476562 160.113281 12.355469 L 160.125 12.210938 C 159.847656 12.238281 159.675781 12.34375 159.292969 12.367188 L 159.40625 12.296875 C 158.78125 12.609375 158.617188 11.878906 158.132812 12.519531 C 157.867188 12.402344 157.371094 12.496094 157.390625 12.207031 C 156.613281 12.40625 156.003906 12.496094 155.230469 12.621094 C 155.097656 12.148438 155.066406 12.65625 154.589844 12.398438 L 154.628906 12.648438 C 153.535156 12.710938 152.261719 12.113281 151.054688 12.246094 L 151.011719 11.988281 L 150.777344 12.277344 C 149.472656 12.1875 147.78125 12.132812 146.742188 12.152344 C 146.40625 12.296875 145.898438 12.609375 145.355469 12.542969 L 145.414062 12.503906 C 144.476562 12.6875 143.488281 12.835938 142.457031 12.730469 C 142.515625 12.617188 142.410156 12.546875 142.523438 12.472656 C 142.289062 12.765625 141.921875 12.511719 141.703125 12.515625 L 141.964844 12.695312 C 141.683594 12.949219 141.257812 12.730469 141.101562 12.550781 L 140.648438 12.84375 C 140.621094 12.820312 140.570312 12.78125 140.5625 12.738281 L 140.484375 12.878906 L 140.226562 12.550781 C 140.117188 12.625 139.507812 12.734375 139.332031 13.0625 C 139.28125 12.953125 138.847656 12.882812 139.179688 12.808594 L 137.488281 12.777344 L 137.757812 12.886719 C 137.800781 13.136719 137.304688 13.320312 137.035156 13.210938 C 137.371094 12.992188 137.046875 12.847656 136.894531 12.667969 C 136.671875 12.816406 137.101562 12.886719 136.988281 13.03125 C 136.707031 13.210938 136.105469 13.324219 135.945312 13.21875 L 136.113281 13.105469 C 135.726562 13.222656 135.523438 12.789062 135.140625 12.832031 C 134.804688 13.054688 134.539062 12.882812 134.632812 13.3125 C 134.136719 13.429688 134.425781 13.027344 134.261719 12.992188 C 134.039062 13.214844 133.332031 13.117188 133.230469 12.902344 C 132.992188 13.558594 131.875 12.742188 131.800781 13.285156 L 131.375 13.003906 C 131.367188 13.152344 131.304688 13.476562 130.976562 13.554688 C 130.652344 13.414062 130.714844 13.160156 130.609375 13.019531 L 130.429688 13.566406 C 128.589844 13.085938 126.230469 13.59375 124.222656 13.269531 C 123.347656 13.445312 122.25 13.769531 121.214844 13.761719 L 121.324219 13.6875 L 120.289062 13.609375 L 121.050781 13.804688 C 120.832031 13.882812 120.664062 14 120.445312 14.007812 C 119.308594 13.863281 117.785156 13.679688 116.421875 14.070312 C 115.574219 14.761719 115.785156 13.574219 114.960938 14.09375 C 115.03125 14.03125 115.050781 13.941406 115.113281 13.875 C 114.203125 14.15625 113.710938 14.304688 112.816406 14.742188 C 112.871094 14.125 112.214844 14.808594 112.269531 14.480469 L 112.214844 14.734375 C 111.996094 14.601562 111.507812 14.585938 111.5625 14.402344 L 111.179688 14.746094 L 111.125 14.496094 C 110.582031 14.519531 109.4375 14.824219 109.105469 14.332031 C 107.796875 14.816406 105.675781 14.925781 103.988281 14.988281 C 103.769531 15.21875 103.28125 15.28125 102.902344 15.34375 L 102.460938 15.082031 C 102.082031 15.210938 101.707031 15.632812 101.324219 15.476562 C 101.320312 15.4375 101.335938 15.414062 101.359375 15.394531 C 100.96875 15.492188 100.574219 15.371094 100.234375 15.6875 C 99.796875 15.710938 99.359375 15.59375 99.464844 15.300781 C 99.472656 15.804688 98.535156 15.316406 98.535156 15.316406 C 98.535156 15.316406 92.933594 15.609375 86.695312 16.40625 C 80.460938 17.199219 73.609375 18.574219 71.113281 20.324219 C 70.96875 20.59375 70.488281 20.828125 70.726562 21.09375 C 70.351562 21.242188 70.109375 20.832031 70.070312 21.085938 C 70.621094 21.175781 70.003906 21.75 70.566406 21.984375 L 70.242188 22.089844 C 70.203125 22.277344 70.664062 21.828125 70.628906 22.15625 L 70.652344 21.683594 C 70.929688 21.714844 71.09375 21.789062 71.210938 21.933594 C 71.433594 21.71875 71.503906 21.070312 72.144531 21.257812 L 71.980469 21.308594 C 72.46875 21.21875 72.324219 21.5625 72.4375 21.625 L 72.328125 21.636719 L 72.773438 21.808594 C 72.441406 21.699219 71.980469 22.148438 72.246094 22.082031 C 72.847656 22.125 72.078125 21.988281 72.507812 21.871094 C 72.773438 21.808594 72.734375 22.066406 72.742188 22.210938 L 73.226562 22.125 C 73.242188 22.34375 72.902344 22.160156 73.132812 22.351562 L 73.714844 22.039062 C 73.90625 22.5625 74.34375 21.679688 74.695312 22.152344 C 74.273438 22.34375 74.761719 22.328125 74.71875 22.515625 L 75.792969 22.332031 C 75.90625 22.390625 75.53125 22.539062 75.691406 22.488281 C 75.917969 22.605469 76.007812 22.308594 76.117188 22.296875 C 76.230469 22.429688 76.921875 22.175781 76.941406 22.539062 C 77.707031 22.675781 77.1875 22.039062 77.898438 22.144531 C 78.019531 22.351562 77.363281 22.273438 77.699219 22.457031 L 78.394531 22.273438 C 78.34375 22.390625 78.304688 22.648438 78.035156 22.640625 C 79.984375 22.648438 81.171875 23.679688 82.878906 23.160156 C 83.160156 23.390625 82.726562 23.359375 82.574219 23.550781 C 83.792969 23.042969 84.425781 23.894531 85.5 23.726562 L 85.492188 23.511719 C 87.078125 23.992188 88.828125 23.339844 90.5625 23.433594 L 90.34375 23.304688 C 90.550781 23.070312 90.925781 23.007812 91.195312 22.878906 C 91.25 22.980469 91.046875 23.359375 91.527344 23.214844 C 91.417969 23.152344 91.199219 23.09375 91.25 22.980469 C 92.773438 23.375 95.835938 22.890625 98.261719 22.890625 C 101.488281 22.386719 105.050781 22.476562 108.222656 22.027344 C 107.738281 22.09375 107.898438 21.539062 108.273438 21.625 C 109.359375 22.445312 110 21.328125 111.078125 21.859375 C 112.914062 21.414062 114.636719 22.0625 116.3125 21.222656 L 116.363281 21.476562 C 116.632812 21.570312 116.6875 21.386719 116.957031 21.339844 L 116.957031 21.410156 C 117.601562 21.449219 118.359375 21.136719 118.738281 21.234375 L 118.738281 20.945312 C 119.117188 20.894531 118.953125 21.15625 119.332031 20.964844 L 119.332031 21.109375 L 119.765625 20.804688 C 119.757812 21.3125 120.84375 20.769531 121.167969 20.980469 C 121.652344 20.855469 122.574219 20.570312 123.328125 20.621094 C 123.484375 20.871094 124.402344 20.804688 124.996094 20.894531 C 126.128906 20.75 127.75 20.558594 129.207031 20.578125 L 129.160156 20.253906 L 129.539062 20.210938 C 129.539062 20.28125 129.589844 20.320312 129.535156 20.355469 C 129.851562 20.710938 130.402344 20.195312 130.71875 20.410156 C 130.511719 20.125 130.453125 20.375 130.234375 20.382812 C 129.917969 20.242188 130.195312 19.910156 130.625 20.050781 L 130.621094 20.121094 L 130.898438 19.933594 C 130.941406 20.1875 131.210938 20.292969 131.257812 20.542969 C 132.5 20.417969 133.324219 19.929688 134.617188 19.980469 C 134.5 20.273438 135.539062 19.859375 135.304688 20.367188 C 136.066406 20.140625 135.15625 19.976562 135.492188 19.605469 C 135.710938 19.601562 135.929688 19.453125 135.976562 19.636719 C 135.882812 19.761719 136.167969 19.925781 135.996094 19.980469 L 136.507812 19.914062 C 136.558594 19.949219 136.449219 20.023438 136.394531 20.0625 C 137.433594 19.730469 138.273438 20.3125 139.203125 19.984375 C 139.265625 19.800781 138.828125 19.949219 138.886719 19.765625 C 139.824219 19.363281 139.742188 20.054688 140.617188 19.761719 L 140.441406 20.015625 C 140.722656 19.835938 140.839844 19.617188 141.316406 19.796875 C 141.410156 20.085938 140.925781 20.050781 140.707031 20.199219 C 141.03125 20.195312 141.84375 20.085938 141.582031 19.832031 C 141.96875 19.722656 142.117188 19.976562 142.328125 20.050781 C 142.335938 19.976562 141.960938 19.867188 142.183594 19.722656 C 142.714844 19.867188 143.527344 19.828125 144.171875 19.828125 C 144.171875 19.902344 144.21875 20.007812 144.164062 20.046875 C 144.667969 19.644531 144.636719 20.300781 145.34375 20.1875" fill="#60c18e"/></g><g id="change1_67"><path d="M 179.714844 18.480469 L 179.453125 18.429688 C 179.453125 18.492188 179.4375 18.566406 179.316406 18.636719 L 179.714844 18.480469" fill="#60c18e"/></g><g id="change1_68"><path d="M 167.355469 18.164062 C 167.324219 18.1875 167.289062 18.207031 167.261719 18.242188 C 167.324219 18.230469 167.34375 18.195312 167.355469 18.164062" fill="#60c18e"/></g><g id="change1_69"><path d="M 164.355469 18.667969 C 164.566406 18.605469 164.375 18.527344 164.269531 18.457031 C 164.265625 18.511719 164.273438 18.582031 164.355469 18.667969" fill="#60c18e"/></g><g id="change1_70"><path d="M 186.734375 17.882812 C 186.6875 17.910156 186.660156 17.949219 186.664062 18.007812 C 186.730469 17.957031 186.742188 17.917969 186.734375 17.882812" fill="#60c18e"/></g><g id="change1_71"><path d="M 206.074219 18.980469 C 206.050781 18.964844 206.027344 18.953125 206 18.929688 C 206.011719 18.953125 206.039062 18.96875 206.074219 18.980469" fill="#60c18e"/></g><g id="change1_72"><path d="M 205.03125 18.457031 C 204.980469 18.453125 204.910156 18.457031 204.808594 18.484375 C 204.90625 18.507812 204.972656 18.488281 205.03125 18.457031" fill="#60c18e"/></g><g id="change1_73"><path d="M 182.039062 17.859375 C 181.964844 17.867188 181.894531 17.886719 181.832031 17.945312 C 181.945312 17.941406 182 17.902344 182.039062 17.859375" fill="#60c18e"/></g><g id="change1_74"><path d="M 204.582031 18.535156 L 204.316406 18.488281 C 204.3125 18.507812 204.3125 18.519531 204.308594 18.542969 L 204.582031 18.535156" fill="#60c18e"/></g><g id="change1_75"><path d="M 206.410156 19.039062 C 206.308594 19.019531 206.164062 19.011719 206.074219 18.980469 C 206.203125 19.066406 206.308594 19.074219 206.410156 19.039062" fill="#60c18e"/></g><g id="change1_76"><path d="M 193.859375 17.757812 C 193.851562 17.761719 193.839844 17.761719 193.828125 17.765625 C 193.613281 17.878906 193.746094 17.832031 193.859375 17.757812" fill="#60c18e"/></g><g id="change1_77"><path d="M 203.375 18.957031 L 203.339844 18.945312 L 203.257812 19.019531 Z M 203.375 18.957031" fill="#60c18e"/></g><g id="change1_78"><path d="M 207.570312 19.222656 C 207.519531 19.226562 207.472656 19.238281 207.433594 19.269531 C 207.472656 19.28125 207.523438 19.292969 207.582031 19.3125 C 207.570312 19.273438 207.570312 19.246094 207.570312 19.222656" fill="#60c18e"/></g><g id="change1_79"><path d="M 197.890625 18.402344 C 197.972656 18.300781 198.003906 18.226562 198.007812 18.171875 C 197.917969 18.171875 197.859375 18.21875 197.890625 18.402344" fill="#60c18e"/></g></g></svg>