<?xml version="1.0" encoding="UTF-8" standalone="no"?><svg xmlns="http://www.w3.org/2000/svg" xmlns:xlink="http://www.w3.org/1999/xlink" fill="#60c18e" height="500" preserveAspectRatio="xMidYMid meet" version="1" viewBox="0.0 0.0 765.9 500.0" width="765.9" zoomAndPan="magnify"><defs><clipPath id="a"><path d="M 0 0 L 765.878906 0 L 765.878906 500 L 0 500 Z M 0 0"/></clipPath></defs><g><g clip-path="url(#a)" id="change1_14"><path d="M 551.5625 478.007812 C 445.515625 478.007812 359.238281 391.730469 359.238281 285.679688 C 359.238281 179.628906 445.515625 93.351562 551.5625 93.351562 C 657.613281 93.351562 743.890625 179.628906 743.890625 285.679688 C 743.890625 391.730469 657.613281 478.007812 551.5625 478.007812 Z M 749.035156 202.253906 C 738.242188 176.730469 722.789062 153.8125 703.109375 134.132812 C 683.433594 114.453125 660.511719 99 634.988281 88.207031 C 611.921875 78.449219 587.605469 72.890625 562.5625 71.636719 L 562.5625 46.921875 L 575.601562 46.921875 C 582.433594 46.921875 587.976562 41.378906 587.976562 34.542969 L 587.976562 12.378906 C 587.976562 5.539062 582.433594 0 575.601562 0 L 527.527344 0 C 520.691406 0 515.152344 5.539062 515.152344 12.378906 L 515.152344 34.542969 C 515.152344 41.378906 520.691406 46.921875 527.527344 46.921875 L 540.566406 46.921875 L 540.566406 71.636719 C 515.519531 72.890625 491.203125 78.449219 468.136719 88.207031 C 463.441406 90.191406 458.839844 92.335938 454.324219 94.636719 L 236.070312 105.570312 L 422.0625 114.890625 C 414.328125 120.769531 406.96875 127.179688 400.015625 134.132812 C 396.855469 137.292969 393.816406 140.546875 390.871094 143.871094 L 174.976562 154.691406 L 374.625 164.695312 C 367.242188 175.472656 360.863281 186.914062 355.53125 198.949219 L 71.359375 209.433594 L 347.613281 219.621094 C 342.980469 233.902344 339.894531 248.59375 338.363281 263.578125 L 0 274.4375 L 337.246094 285.261719 C 337.246094 285.402344 337.242188 285.539062 337.242188 285.679688 C 337.242188 301.507812 338.945312 317.082031 342.3125 332.269531 L 12.21875 342.863281 L 348.246094 353.648438 C 349.988281 358.859375 351.9375 364.011719 354.089844 369.105469 C 355.949219 373.5 357.953125 377.808594 360.085938 382.046875 L 156.890625 392.230469 L 372.183594 403.015625 C 379.164062 413.667969 387.09375 423.699219 395.949219 433.039062 L 205.765625 442.570312 L 417.871094 453.199219 C 433.160156 465.433594 449.988281 475.476562 468.136719 483.152344 C 494.566406 494.332031 522.636719 500 551.5625 500 C 580.492188 500 608.5625 494.332031 634.988281 483.152344 C 660.511719 472.359375 683.433594 456.90625 703.109375 437.226562 C 722.789062 417.546875 738.242188 394.628906 749.035156 369.105469 C 760.214844 342.675781 765.882812 314.609375 765.882812 285.679688 C 765.882812 256.75 760.214844 228.683594 749.035156 202.253906"/></g><g id="change1_1"><path d="M 551.5625 264.417969 C 542.523438 264.417969 534.816406 270.128906 531.851562 278.136719 L 506.070312 281.695312 L 511.363281 308.050781 L 537.5625 301.101562 C 541.277344 304.429688 546.183594 306.453125 551.5625 306.453125 C 560.839844 306.453125 568.703125 300.441406 571.492188 292.105469 L 724.421875 251.558594 L 568.554688 273.070312 C 564.734375 267.828125 558.546875 264.417969 551.5625 264.417969"/></g><g id="change1_2"><path d="M 552.296875 139.539062 C 555.671875 139.539062 558.40625 136.804688 558.40625 133.429688 L 558.40625 108.992188 C 558.40625 105.617188 555.671875 102.882812 552.296875 102.882812 C 548.921875 102.882812 546.1875 105.617188 546.1875 108.992188 L 546.1875 133.429688 C 546.1875 136.804688 548.921875 139.539062 552.296875 139.539062"/></g><g id="change1_3"><path d="M 625.144531 159.453125 C 626.109375 160.007812 627.15625 160.273438 628.195312 160.273438 C 630.308594 160.273438 632.359375 159.175781 633.492188 157.21875 L 645.710938 136.054688 C 647.398438 133.132812 646.398438 129.394531 643.476562 127.707031 C 640.550781 126.019531 636.816406 127.023438 635.128906 129.945312 L 622.910156 151.109375 C 621.222656 154.03125 622.222656 157.765625 625.144531 159.453125"/></g><g id="change1_4"><path d="M 678.277344 213.121094 C 679.410156 215.082031 681.464844 216.179688 683.574219 216.179688 C 684.609375 216.179688 685.660156 215.914062 686.625 215.359375 L 707.789062 203.140625 C 710.710938 201.453125 711.710938 197.714844 710.023438 194.792969 C 708.335938 191.871094 704.601562 190.871094 701.679688 192.558594 L 680.515625 204.777344 C 677.59375 206.464844 676.589844 210.199219 678.277344 213.121094"/></g><g id="change1_5"><path d="M 697.457031 286.167969 C 697.457031 289.542969 700.191406 292.277344 703.566406 292.277344 L 728.003906 292.277344 C 731.378906 292.277344 734.113281 289.542969 734.113281 286.167969 C 734.113281 282.792969 731.378906 280.058594 728.003906 280.058594 L 703.566406 280.058594 C 700.191406 280.058594 697.457031 282.792969 697.457031 286.167969"/></g><g id="change1_6"><path d="M 707.054688 369 L 685.890625 356.78125 C 682.96875 355.09375 679.234375 356.09375 677.546875 359.015625 C 675.859375 361.9375 676.859375 365.675781 679.78125 367.363281 L 700.945312 379.582031 C 701.90625 380.136719 702.957031 380.402344 703.996094 380.402344 C 706.105469 380.402344 708.160156 379.304688 709.289062 377.34375 C 710.980469 374.421875 709.976562 370.6875 707.054688 369"/></g><g id="change1_7"><path d="M 632.222656 414.386719 C 630.535156 411.464844 626.800781 410.460938 623.875 412.148438 C 620.953125 413.835938 619.953125 417.574219 621.640625 420.496094 L 633.859375 441.660156 C 634.988281 443.621094 637.042969 444.714844 639.15625 444.714844 C 640.191406 444.714844 641.242188 444.449219 642.203125 443.894531 C 645.128906 442.210938 646.128906 438.472656 644.441406 435.550781 L 632.222656 414.386719"/></g><g id="change1_8"><path d="M 550.832031 431.328125 C 547.457031 431.328125 544.722656 434.066406 544.722656 437.4375 L 544.722656 461.878906 C 544.722656 465.25 547.457031 467.984375 550.832031 467.984375 C 554.203125 467.984375 556.941406 465.25 556.941406 461.878906 L 556.941406 437.4375 C 556.941406 434.066406 554.203125 431.328125 550.832031 431.328125"/></g><g id="change1_9"><path d="M 477.980469 411.417969 C 475.058594 409.730469 471.324219 410.730469 469.636719 413.652344 L 457.417969 434.816406 C 455.730469 437.738281 456.730469 441.476562 459.652344 443.160156 C 460.613281 443.71875 461.664062 443.980469 462.703125 443.980469 C 464.8125 443.980469 466.867188 442.886719 468 440.925781 L 480.21875 419.761719 C 481.90625 416.839844 480.902344 413.105469 477.980469 411.417969"/></g><g id="change1_10"><path d="M 416.503906 355.511719 L 395.339844 367.730469 C 392.417969 369.417969 391.414062 373.152344 393.101562 376.074219 C 394.234375 378.035156 396.289062 379.132812 398.398438 379.132812 C 399.4375 379.132812 400.488281 378.867188 401.449219 378.3125 L 422.613281 366.09375 C 425.535156 364.40625 426.535156 360.667969 424.847656 357.746094 C 423.160156 354.824219 419.425781 353.824219 416.503906 355.511719"/></g><g id="change1_11"><path d="M 405.667969 284.703125 C 405.667969 281.328125 402.933594 278.59375 399.558594 278.59375 L 375.121094 278.59375 C 371.746094 278.59375 369.011719 281.328125 369.011719 284.703125 C 369.011719 288.074219 371.746094 290.8125 375.121094 290.8125 L 399.558594 290.8125 C 402.933594 290.8125 405.667969 288.074219 405.667969 284.703125"/></g><g id="change1_12"><path d="M 423.347656 203.507812 L 402.183594 191.289062 C 399.261719 189.601562 395.523438 190.601562 393.835938 193.523438 C 392.148438 196.445312 393.152344 200.183594 396.074219 201.871094 L 417.234375 214.089844 C 418.199219 214.644531 419.25 214.90625 420.285156 214.90625 C 422.398438 214.90625 424.449219 213.8125 425.582031 211.851562 C 427.269531 208.929688 426.269531 205.195312 423.347656 203.507812"/></g><g id="change1_13"><path d="M 469.269531 129.210938 C 467.582031 126.289062 463.847656 125.285156 460.921875 126.972656 C 458 128.660156 457 132.398438 458.6875 135.320312 L 470.90625 156.484375 C 472.039062 158.445312 474.089844 159.539062 476.203125 159.539062 C 477.238281 159.539062 478.289062 159.277344 479.253906 158.71875 C 482.175781 157.03125 483.175781 153.296875 481.488281 150.375 L 469.269531 129.210938"/></g></g></svg>