<?xml version="1.0" encoding="UTF-8" standalone="no"?><svg xmlns="http://www.w3.org/2000/svg" xmlns:xlink="http://www.w3.org/1999/xlink" fill="#000000" height="1839.6" preserveAspectRatio="xMidYMid meet" version="1" viewBox="0.0 -0.3 2328.1 1839.6" width="2328.1" zoomAndPan="magnify"><defs><clipPath id="a"><path d="M 0 1024 L 2328.109375 1024 L 2328.109375 1839.339844 L 0 1839.339844 Z M 0 1024"/></clipPath></defs><g><g clip-path="url(#a)" id="change1_1"><path d="M 2308 1310.519531 L 1576.863281 1055.140625 C 1561.222656 1049.679688 1544.113281 1057.921875 1538.644531 1073.570312 C 1533.1875 1089.210938 1541.441406 1106.320312 1557.082031 1111.78125 L 2214.019531 1341.25 L 1164.058594 1776.859375 L 114.085938 1341.25 L 853.273438 1083.050781 C 868.914062 1077.589844 877.164062 1060.480469 871.703125 1044.839844 C 866.238281 1029.199219 849.125 1020.953125 833.488281 1026.410156 L 20.105469 1310.519531 C 8.363281 1314.621094 0.367188 1325.550781 0.0117188 1337.980469 C -0.34375 1350.421875 7.011719 1361.78125 18.503906 1366.550781 L 1152.558594 1837.050781 C 1156.238281 1838.578125 1160.148438 1839.339844 1164.058594 1839.339844 C 1167.96875 1839.339844 1171.867188 1838.578125 1175.546875 1837.050781 L 2309.601562 1366.550781 C 2321.097656 1361.78125 2328.453125 1350.421875 2328.097656 1337.980469 C 2327.738281 1325.550781 2319.742188 1314.621094 2308 1310.519531" fill="#60c18e"/></g><g id="change1_2"><path d="M 1274.230469 762.851562 C 1300.164062 730.589844 1318.226562 687.519531 1330.789062 643.292969 C 1345.148438 695.902344 1363.40625 736.167969 1385.371094 763.476562 C 1420.691406 807.390625 1467.535156 835.054688 1512.714844 852.476562 C 1466.777344 870.496094 1418.78125 899.210938 1381.996094 944.960938 C 1360.464844 971.734375 1342.863281 1008.921875 1329.34375 1056.050781 C 1316.542969 1013.140625 1298.316406 971.34375 1272.378906 939.09375 C 1237.953125 896.277344 1192.054688 869.128906 1147.542969 851.917969 C 1192.484375 834.378906 1239.003906 806.65625 1274.230469 762.851562 Z M 995.058594 822.117188 C 995.023438 822.121094 994.992188 822.121094 994.957031 822.121094 C 994.933594 822.121094 994.929688 822.121094 994.914062 822.121094 C 994.839844 822.117188 994.78125 822.121094 994.71875 822.125 C 994.695312 822.117188 994.683594 822.125 994.667969 822.125 L 994.664062 822.125 C 978.410156 822.484375 965.34375 835.777344 965.34375 852.117188 C 965.34375 868.664062 978.738281 882.082031 995.277344 882.117188 C 995.285156 882.117188 995.292969 882.117188 995.296875 882.117188 C 996.84375 882.121094 1150.8125 883.65625 1225.628906 976.691406 C 1298.535156 1067.351562 1299.550781 1265.738281 1299.550781 1267.738281 C 1299.550781 1284.21875 1312.863281 1297.609375 1329.355469 1297.71875 C 1329.417969 1297.71875 1329.480469 1297.71875 1329.550781 1297.71875 C 1345.949219 1297.71875 1359.332031 1284.53125 1359.539062 1268.109375 C 1360.300781 1211.691406 1374.203125 1050.398438 1428.746094 982.5625 C 1469.65625 931.691406 1530.496094 907.136719 1574.324219 895.492188 C 1623.597656 882.402344 1663.40625 882.121094 1663.75 882.117188 C 1680.324219 882.117188 1693.75 868.6875 1693.75 852.117188 C 1693.75 835.550781 1680.324219 822.117188 1663.75 822.117188 C 1662.210938 822.117188 1508.640625 821.015625 1432.132812 725.871094 C 1380.363281 661.488281 1362.160156 494.203125 1359.519531 435.179688 C 1358.8125 419.117188 1345.5625 406.511719 1329.5625 406.511719 C 1329.363281 406.511719 1329.167969 406.511719 1328.96875 406.523438 C 1312.699219 406.832031 1299.644531 420.0625 1299.550781 436.332031 C 1299.542969 436.84375 1299.136719 487.644531 1289.585938 549.597656 C 1277.304688 629.246094 1255.828125 689.980469 1227.46875 725.246094 C 1150.84375 820.53125 996.84375 822.113281 995.34375 822.117188 C 995.25 822.117188 995.152344 822.117188 995.058594 822.117188" fill="#60c18e"/></g><g id="change1_3"><path d="M 884.597656 245.519531 C 894.359375 232.960938 902.898438 217.546875 910.183594 199.378906 C 917.382812 218.371094 925.664062 233.910156 934.992188 245.925781 C 952.65625 268.652344 974.660156 284.96875 997.191406 296.671875 C 974.085938 308.789062 951.359375 325.773438 932.898438 349.523438 C 924.015625 360.957031 916.175781 375.082031 909.398438 391.828125 C 902.003906 373.886719 893.351562 358.507812 883.457031 345.765625 C 866.289062 323.671875 844.851562 307.730469 822.789062 296.21875 C 845.164062 284.472656 867 268.167969 884.597656 245.519531 Z M 702.601562 326.382812 C 702.609375 326.382812 702.621094 326.382812 702.628906 326.382812 C 703.941406 326.390625 793.378906 327.621094 836.078125 382.574219 C 871.679688 428.410156 879.59375 528.183594 879.636719 562.769531 C 879.648438 579.253906 892.964844 592.648438 909.453125 592.75 C 909.515625 592.75 909.578125 592.75 909.644531 592.75 C 926.050781 592.75 939.433594 579.550781 939.636719 563.121094 C 940.066406 527.949219 948.207031 427.621094 980.28125 386.34375 C 1025.914062 327.589844 1115.765625 326.382812 1116.574219 326.382812 C 1116.605469 326.382812 1116.644531 326.382812 1116.675781 326.382812 C 1133.195312 326.324219 1146.613281 312.917969 1146.613281 296.378906 C 1146.613281 279.8125 1133.242188 266.382812 1116.675781 266.382812 C 1116.664062 266.382812 1116.664062 266.382812 1116.65625 266.382812 C 1115.394531 266.371094 1025.886719 265.121094 982.371094 209.105469 C 952.03125 170.054688 941.214844 65.652344 939.609375 28.71875 C 938.914062 12.460938 925.351562 -0.277344 909.082031 0.015625 C 892.800781 0.320312 879.734375 13.554688 879.640625 29.835938 C 879.4375 64.660156 871.425781 164.679688 837.214844 208.710938 C 793.308594 265.222656 703.519531 266.371094 702.699219 266.382812 C 686.132812 266.382812 672.660156 279.8125 672.660156 296.378906 C 672.660156 312.941406 686.042969 326.371094 702.601562 326.382812" fill="#60c18e"/></g><g id="change1_4"><path d="M 1086.578125 1366.089844 C 1086.578125 1387.640625 1069.050781 1405.171875 1047.511719 1405.171875 C 1025.960938 1405.171875 1008.429688 1387.640625 1008.429688 1366.089844 C 1008.429688 1344.550781 1025.960938 1327.019531 1047.511719 1327.019531 C 1069.050781 1327.019531 1086.578125 1344.550781 1086.578125 1366.089844 Z M 948.429688 1366.089844 C 948.429688 1420.71875 992.875 1465.171875 1047.511719 1465.171875 C 1102.140625 1465.171875 1146.578125 1420.71875 1146.578125 1366.089844 C 1146.578125 1311.460938 1102.140625 1267.019531 1047.511719 1267.019531 C 992.875 1267.019531 948.429688 1311.460938 948.429688 1366.089844" fill="#60c18e"/></g><g id="change1_5"><path d="M 1450.074219 86.367188 C 1465.167969 86.367188 1477.445312 98.648438 1477.445312 113.738281 C 1477.445312 128.832031 1465.167969 141.113281 1450.074219 141.113281 C 1434.980469 141.113281 1422.703125 128.832031 1422.703125 113.738281 C 1422.703125 98.648438 1434.980469 86.367188 1450.074219 86.367188 Z M 1450.074219 201.117188 C 1498.257812 201.117188 1537.441406 161.921875 1537.441406 113.738281 C 1537.441406 65.566406 1498.257812 26.371094 1450.074219 26.371094 C 1401.902344 26.371094 1362.707031 65.566406 1362.707031 113.738281 C 1362.707031 161.921875 1401.902344 201.117188 1450.074219 201.117188" fill="#60c18e"/></g><g id="change1_6"><path d="M 575.015625 794.828125 C 613.25 794.828125 644.355469 825.941406 644.355469 864.175781 C 644.355469 876.308594 641.183594 888.234375 635.1875 898.667969 C 622.828125 920.160156 599.769531 933.515625 575.015625 933.515625 C 536.78125 933.515625 505.675781 902.410156 505.675781 864.175781 C 505.675781 825.941406 536.78125 794.828125 575.015625 794.828125 Z M 575.015625 993.515625 C 621.179688 993.515625 664.167969 968.632812 687.199219 928.574219 C 698.421875 909.058594 704.355469 886.789062 704.355469 864.175781 C 704.355469 792.851562 646.332031 734.828125 575.015625 734.828125 C 503.695312 734.828125 445.675781 792.851562 445.675781 864.175781 C 445.675781 935.492188 503.695312 993.515625 575.015625 993.515625" fill="#60c18e"/></g></g></svg>