<?xml version="1.0" encoding="UTF-8" standalone="no"?><svg xmlns="http://www.w3.org/2000/svg" xmlns:xlink="http://www.w3.org/1999/xlink" fill="#0877cf" height="46.1" preserveAspectRatio="xMidYMid meet" version="1" viewBox="2.0 2.0 46.0 46.1" width="46" zoomAndPan="magnify"><g id="change1_1"><path d="M 25 2 C 24.832031 2 24.652344 2.039063 24.5 2.125 L 17.03125 6.28125 L 25 10.625 L 33 6.3125 L 25.5 2.125 C 25.347656 2.039063 25.167969 2 25 2 Z M 16 8 L 16 10.84375 L 6.5 16.125 C 6.1875 16.304688 5.996094 16.640625 6 17 L 6 25.625 L 2.96875 27.3125 L 11 31.625 L 18.9375 27.28125 L 11.5 23.125 C 11.195313 22.957031 10.804688 22.957031 10.5 23.125 L 8 24.5 L 8 17.59375 L 16 13.15625 L 16 16.34375 C 16 16.707031 16.183594 17.042969 16.5 17.21875 L 24 21.375 L 24 12.375 Z M 34 8.0625 L 26 12.375 L 26 21.375 L 33.5 17.21875 C 33.816406 17.042969 34 16.707031 34 16.34375 L 34 13.15625 L 42 17.59375 L 42 24.53125 L 39.5 23.125 C 39.199219 22.957031 38.800781 22.957031 38.5 23.125 L 31.03125 27.28125 L 39 31.625 L 46.9375 27.28125 L 44 25.625 L 44 17 C 44 16.636719 43.816406 16.300781 43.5 16.125 L 34 10.84375 Z M 20 28.96875 L 12 33.375 L 12 42.375 L 13.3125 41.65625 L 24.5 47.875 C 24.808594 48.054688 25.191406 48.054688 25.5 47.875 L 36.6875 41.65625 L 38 42.375 L 38 33.375 L 30 29 L 30 37.34375 C 30 37.707031 30.183594 38.042969 30.5 38.21875 L 34.625 40.5 L 25 45.84375 L 15.375 40.5 L 19.5 38.21875 C 19.816406 38.042969 20 37.707031 20 37.34375 Z M 48 28.96875 L 40 33.375 L 40 42.375 L 47.5 38.21875 C 47.816406 38.042969 48 37.707031 48 37.34375 Z M 2 29.0625 L 2 37.34375 C 2 37.707031 2.183594 38.042969 2.5 38.21875 L 10 42.375 L 10 33.375 Z" fill="inherit"/></g></svg>