<?xml version="1.0" encoding="UTF-8" standalone="no"?><svg xmlns="http://www.w3.org/2000/svg" xmlns:xlink="http://www.w3.org/1999/xlink" fill="#000000" height="2161.2" preserveAspectRatio="xMidYMid meet" version="1" viewBox="0.0 0.0 2199.8 2161.2" width="2199.8" zoomAndPan="magnify"><defs><clipPath id="a"><path d="M 0 1087 L 2199.789062 1087 L 2199.789062 2161.21875 L 0 2161.21875 Z M 0 1087"/></clipPath></defs><g><g id="change1_2"><path d="M 1974.199219 431.199219 C 1972.289062 431.199219 1970.351562 431.339844 1968.441406 431.621094 C 1957.960938 433.140625 1948.699219 438.648438 1942.359375 447.140625 C 1936.019531 455.628906 1933.371094 466.070312 1934.890625 476.558594 C 1938.089844 498.671875 1939.71875 521.300781 1939.71875 543.820312 C 1939.71875 799.949219 1731.339844 1008.328125 1475.210938 1008.328125 C 1219.078125 1008.328125 1010.710938 799.949219 1010.710938 543.820312 C 1010.710938 287.691406 1219.078125 79.320312 1475.210938 79.320312 C 1537.941406 79.320312 1598.761719 91.589844 1656 115.800781 C 1686.378906 128.648438 1715.480469 144.828125 1742.519531 163.890625 C 1749.25 168.628906 1757.128906 171.128906 1765.320312 171.128906 C 1778.230469 171.128906 1790.359375 164.851562 1797.78125 154.320312 C 1810.378906 136.449219 1806.089844 111.660156 1788.21875 99.058594 C 1756.558594 76.738281 1722.46875 57.800781 1686.898438 42.75 C 1619.828125 14.378906 1548.609375 0 1475.210938 0 C 1401.808594 0 1330.589844 14.378906 1263.519531 42.75 C 1198.761719 70.140625 1140.601562 109.351562 1090.671875 159.28125 C 1040.738281 209.210938 1001.539062 267.371094 974.144531 332.128906 C 945.773438 399.199219 931.390625 470.421875 931.390625 543.820312 C 931.390625 617.21875 945.773438 688.441406 974.144531 755.511719 C 1001.539062 820.28125 1040.738281 878.429688 1090.671875 928.359375 C 1140.601562 978.289062 1198.761719 1017.5 1263.519531 1044.890625 C 1330.589844 1073.261719 1401.808594 1087.640625 1475.210938 1087.640625 C 1548.609375 1087.640625 1619.828125 1073.261719 1686.898438 1044.890625 C 1751.671875 1017.488281 1809.820312 978.289062 1859.75 928.359375 C 1909.679688 878.429688 1948.890625 820.28125 1976.28125 755.511719 C 2004.648438 688.441406 2019.03125 617.21875 2019.03125 543.820312 C 2019.03125 517.5 2017.128906 491.039062 2013.378906 465.179688 C 2010.570312 445.808594 1993.730469 431.199219 1974.199219 431.199219" fill="#60c18e"/></g><g id="change1_3"><path d="M 2087.320312 29.460938 C 2080.039062 22.960938 2070.671875 19.378906 2060.921875 19.378906 C 2049.628906 19.378906 2038.839844 24.199219 2031.320312 32.621094 L 1451.910156 681.410156 L 1279.101562 474.378906 C 1271.539062 465.328125 1260.429688 460.140625 1248.628906 460.140625 C 1239.371094 460.140625 1230.359375 463.410156 1223.238281 469.351562 C 1206.449219 483.359375 1204.199219 508.421875 1218.210938 525.210938 L 1420.449219 767.488281 C 1427.839844 776.339844 1438.699219 781.53125 1450.230469 781.730469 L 1450.898438 781.730469 C 1462.179688 781.730469 1472.960938 776.910156 1480.46875 768.488281 L 2090.480469 85.449219 C 2105.050781 69.140625 2103.628906 44.019531 2087.320312 29.460938" fill="#60c18e"/></g><g clip-path="url(#a)" id="change1_1"><path d="M 2160.75 1149.421875 C 2100.851562 1076.960938 1993.160156 1066.761719 1920.699219 1126.679688 L 1730.359375 1284.769531 C 1712.371094 1299.628906 1709.859375 1326.269531 1724.71875 1344.238281 C 1739.589844 1362.21875 1766.210938 1364.738281 1784.191406 1349.871094 L 1974.550781 1191.769531 C 2011.089844 1161.558594 2065.429688 1166.699219 2095.648438 1203.25 C 2125.890625 1239.789062 2120.730469 1294.128906 2084.179688 1324.351562 L 1510.128906 1799.75 C 1503.769531 1805.019531 1496.761719 1809.328125 1489.289062 1812.53125 C 1478.011719 1817.390625 1465.578125 1819.730469 1453.191406 1819.421875 L 841.828125 1710.839844 C 840.269531 1710.550781 838.675781 1710.300781 837.058594 1710.171875 C 792.6875 1706.671875 749.355469 1720.371094 715.027344 1748.761719 L 682.121094 1776 L 418.136719 1456.769531 L 673.816406 1244.191406 C 711.015625 1213.441406 757.777344 1198.730469 805.78125 1202.53125 L 1466.570312 1341.558594 C 1466.601562 1341.570312 1466.628906 1341.570312 1466.648438 1341.570312 C 1466.691406 1341.570312 1466.699219 1341.589844 1466.730469 1341.601562 C 1512.511719 1351.058594 1542.75 1395.53125 1534.128906 1440.730469 C 1529.941406 1462.691406 1517.261719 1481.71875 1498.441406 1494.289062 C 1479.398438 1507.011719 1456.390625 1511.621094 1433.640625 1507.28125 C 1433.421875 1507.230469 1433.210938 1507.21875 1433 1507.179688 C 1432.738281 1507.140625 1432.519531 1507.070312 1432.269531 1507.039062 L 1111.378906 1456.519531 C 1088.339844 1452.898438 1066.71875 1468.628906 1063.089844 1491.671875 C 1061.128906 1504.128906 1064.828125 1516.171875 1072.269531 1525.171875 C 1078.609375 1532.839844 1087.660156 1538.308594 1098.25 1539.960938 L 1419.128906 1590.480469 C 1419.179688 1590.488281 1419.230469 1590.480469 1419.269531 1590.488281 C 1463.460938 1598.550781 1508.171875 1589.371094 1545.351562 1564.539062 C 1583.160156 1539.300781 1608.628906 1500.941406 1617.109375 1456.550781 C 1634.320312 1366.378906 1574.660156 1277.800781 1484.109375 1258.929688 C 1484.058594 1258.921875 1484.011719 1258.898438 1483.960938 1258.890625 L 824.125 1120.050781 C 821.726562 1119.378906 819.242188 1118.871094 816.671875 1118.628906 C 745.183594 1111.851562 675.324219 1133.320312 619.898438 1179.160156 L 364.300781 1391.671875 L 336.230469 1357.730469 C 321.363281 1339.761719 294.734375 1337.230469 276.761719 1352.101562 L 15.320312 1568.300781 C -2.65625 1583.171875 -5.175781 1609.789062 9.691406 1627.769531 L 274.449219 1947.921875 C 289.316406 1965.890625 315.9375 1968.421875 333.914062 1953.550781 C 351.890625 1938.679688 354.414062 1912.058594 339.546875 1894.078125 L 101.710938 1606.480469 L 298.042969 1444.121094 L 672.683594 1897.148438 L 476.351562 2059.511719 L 464.644531 2045.359375 C 449.777344 2027.371094 423.15625 2024.859375 405.175781 2039.71875 C 387.203125 2054.589844 384.675781 2081.210938 399.542969 2099.191406 L 438.167969 2145.890625 C 453.03125 2163.871094 479.65625 2166.390625 497.636719 2151.53125 L 759.074219 1935.328125 C 777.046875 1920.460938 779.574219 1893.828125 764.710938 1875.859375 L 735.960938 1841.101562 L 768.882812 1813.851562 C 785.773438 1799.890625 806.996094 1793.019531 828.8125 1794.328125 L 1441.421875 1903.128906 C 1441.5 1903.148438 1441.578125 1903.148438 1441.640625 1903.171875 C 1442.441406 1903.300781 1443.238281 1903.378906 1444.050781 1903.460938 C 1444.761719 1903.550781 1445.460938 1903.648438 1446.160156 1903.691406 C 1446.328125 1903.699219 1446.488281 1903.730469 1446.660156 1903.738281 C 1472.628906 1905.070312 1498.921875 1900.359375 1522.691406 1890.121094 C 1537.53125 1883.738281 1551.421875 1875.238281 1563.96875 1864.859375 L 2138.019531 1389.460938 C 2210.460938 1329.539062 2220.671875 1221.859375 2160.75 1149.421875" fill="#60c18e"/></g></g></svg>