<?xml version="1.0" encoding="UTF-8" standalone="no"?><svg xmlns="http://www.w3.org/2000/svg" xmlns:xlink="http://www.w3.org/1999/xlink" fill="#0877cf" height="231" preserveAspectRatio="xMidYMid meet" version="1" viewBox="0.0 0.0 231.0 231.0" width="231" zoomAndPan="magnify"><g id="change1_1"><path d="M115.5,0C51.7,0,0,51.7,0,115.5c0,63.8,51.7,115.5,115.5,115.5c63.8,0,115.5-51.7,115.5-115.5C230.9,51.7,179.2,0,115.5,0z M81.6,177H54.5V89.6h27.1V177z M68.1,78c-8.7,0-15.8-7.1-15.8-15.8c0-8.7,7.1-15.8,15.8-15.8c8.7,0,15.8,7.1,15.8,15.8 C83.9,70.9,76.8,78,68.1,78z M183.4,177h-27.1v-43.7c0-6.2,0-21.6-13.8-21.6c-15.7,0-16.7,15.9-16.7,15.9V177H98.8V89.6h27.1v12 c6.4-13,19.6-14,28.2-14c9.8,0,18.6,3.8,23.6,12.2c4.3,7.1,5.7,17.4,5.7,33.5V177z"/></g></svg>